<svg width="100%" height="100%" viewBox="0 0 462 144" fill="none" xmlns="http://www.w3.org/2000/svg">
<g clip-path="url(#clip0_1410_3)">
<path d="M77.41 89.71H59.29C58.51 89.71 57.88 89.08 57.88 88.3V51.78H21.43V88.3C21.43 89.08 20.8 89.71 20.02 89.71H1.91C1.13 89.71 0.5 89.08 0.5 88.3V1.41C0.5 0.63 1.13 0 1.91 0H20.03C20.81 0 21.44 0.63 21.44 1.41V37.5H57.89V1.41C57.89 0.63 58.52 0 59.3 0H77.42C78.2 0 78.83 0.63 78.83 1.41V88.3C78.82 89.08 78.19 89.71 77.41 89.71Z" fill="currentColor"></path>
<path d="M167.23 1.41V14.6C167.23 15.38 166.6 16.01 165.82 16.01H130.41V36.94H157.2C157.98 36.94 158.61 37.57 158.61 38.35V50.93C158.61 51.71 157.98 52.34 157.2 52.34H130.41V73.7H165.82C166.6 73.7 167.23 74.33 167.23 75.11V88.3C167.23 89.08 166.6 89.71 165.82 89.71H110.88C110.1 89.71 109.47 89.08 109.47 88.3V1.41C109.47 0.63 110.1 0 110.88 0H165.82C166.6 0 167.23 0.63 167.23 1.41Z" fill="currentColor"></path>
<path d="M376.51 44.82C376.51 51.31 375.39 57.29 373.15 62.77C370.91 68.25 367.76 72.99 363.7 76.99C359.64 80.99 354.74 84.11 349.02 86.35C343.29 88.59 336.94 89.71 329.96 89.71H296.52C295.74 89.71 295.11 89.08 295.11 88.3V1.41C295.11 0.63 295.74 0 296.52 0H329.96C336.94 0 343.29 1.13 349.02 3.39C354.75 5.65 359.64 8.77 363.7 12.75C367.76 16.73 370.91 21.46 373.15 26.94C375.39 32.42 376.51 38.38 376.51 44.82ZM355.21 44.82C355.21 40.39 354.63 36.38 353.49 32.81C352.34 29.24 350.69 26.21 348.53 23.73C346.37 21.25 343.74 19.34 340.62 18C337.5 16.67 333.95 16 329.97 16H316.05V73.7H329.97C333.95 73.7 337.5 73.03 340.62 71.7C343.74 70.37 346.38 68.46 348.53 65.97C350.68 63.49 352.34 60.46 353.49 56.89C354.63 53.32 355.21 49.3 355.21 44.82Z" fill="currentColor"></path>
<path d="M459.69 0C460.47 0 461.1 0.63 461.1 1.41V7.51C461.1 8.58 460.93 9.62 460.58 10.65C460.23 11.68 459.75 12.64 459.13 13.54L417.01 73.7H458.33C459.11 73.7 459.74 74.33 459.74 75.11V88.3C459.74 89.08 459.11 89.71 458.33 89.71H391.94C391.16 89.71 390.53 89.08 390.53 88.3V81.7C390.53 80.76 390.69 79.82 391.02 78.9C391.35 77.98 391.8 77.13 392.37 76.34L434.61 16H395.38C394.6 16 393.97 15.37 393.97 14.59V1.41C393.97 0.63 394.6 0 395.38 0H459.69Z" fill="currentColor"></path>
<path d="M144.04 143.22H138.95C138.38 143.22 137.91 143.08 137.54 142.79C137.17 142.5 136.91 142.15 136.74 141.72L134.1 134.5H119.43L116.79 141.72C116.66 142.1 116.4 142.44 116.02 142.75C115.64 143.06 115.17 143.22 114.61 143.22H109.49L123.4 107.81H130.13L144.04 143.22ZM121.11 129.85H132.4L128.09 118.07C127.89 117.55 127.68 116.93 127.44 116.22C127.2 115.51 126.97 114.74 126.74 113.91C126.51 114.74 126.29 115.52 126.07 116.24C125.85 116.96 125.63 117.59 125.42 118.13L121.11 129.85Z" fill="currentColor"></path>
<path d="M171.53 138.37C173.01 138.37 174.31 138.24 175.41 137.97C176.51 137.7 177.56 137.33 178.56 136.86V130.42H174.13C173.71 130.42 173.37 130.3 173.13 130.06C172.89 129.82 172.76 129.53 172.76 129.19V125.47H184.54V139.8C183.64 140.45 182.71 141.02 181.74 141.5C180.77 141.98 179.73 142.38 178.63 142.69C177.53 143 176.35 143.23 175.09 143.39C173.83 143.54 172.48 143.62 171.03 143.62C168.45 143.62 166.07 143.17 163.9 142.27C161.73 141.37 159.85 140.12 158.27 138.52C156.69 136.92 155.45 135.01 154.56 132.79C153.67 130.57 153.23 128.15 153.23 125.52C153.23 122.86 153.66 120.42 154.53 118.2C155.39 115.98 156.62 114.07 158.22 112.47C159.81 110.87 161.74 109.63 164.01 108.75C166.28 107.87 168.83 107.43 171.65 107.43C174.54 107.43 177.04 107.86 179.16 108.72C181.27 109.58 183.07 110.69 184.53 112.06L182.62 115.05C182.24 115.65 181.75 115.96 181.13 115.96C180.74 115.96 180.34 115.83 179.93 115.57C179.41 115.26 178.87 114.95 178.33 114.64C177.78 114.33 177.18 114.06 176.52 113.83C175.86 113.6 175.12 113.41 174.29 113.27C173.46 113.12 172.51 113.05 171.44 113.05C169.69 113.05 168.11 113.34 166.7 113.93C165.29 114.52 164.08 115.36 163.09 116.45C162.1 117.54 161.33 118.86 160.79 120.39C160.25 121.92 159.98 123.64 159.98 125.53C159.98 127.57 160.27 129.39 160.84 130.98C161.41 132.57 162.21 133.91 163.24 135.01C164.27 136.1 165.49 136.94 166.91 137.52C168.3 138.08 169.85 138.37 171.53 138.37Z" fill="currentColor"></path>
<path d="M223.47 107.81V113.05H207.77V122.87H220.14V127.94H207.77V137.96H223.47V143.23H201.14V107.82H223.47V107.81Z" fill="currentColor"></path>
<path d="M243.11 107.84C243.31 107.86 243.48 107.91 243.64 107.99C243.79 108.06 243.95 108.17 244.09 108.31C244.24 108.45 244.4 108.63 244.58 108.86L263.17 132.54C263.1 131.97 263.06 131.41 263.03 130.86C263.01 130.31 262.99 129.8 262.99 129.33V107.8H268.79V143.21H265.39C264.87 143.21 264.43 143.13 264.09 142.96C263.75 142.8 263.41 142.5 263.09 142.08L244.58 118.5C244.63 119.02 244.67 119.54 244.69 120.05C244.71 120.56 244.73 121.03 244.73 121.46V143.21H238.93V107.8H242.38C242.67 107.81 242.92 107.82 243.11 107.84Z" fill="currentColor"></path>
<path d="M308.65 134.87C309.01 134.87 309.32 135.01 309.58 135.29L312.18 138.11C310.74 139.89 308.98 141.25 306.88 142.2C304.78 143.15 302.26 143.62 299.32 143.62C296.69 143.62 294.33 143.17 292.23 142.27C290.13 141.37 288.34 140.12 286.86 138.52C285.37 136.92 284.23 135.01 283.44 132.79C282.65 130.57 282.25 128.15 282.25 125.52C282.25 122.86 282.69 120.42 283.57 118.21C284.45 116 285.69 114.09 287.29 112.49C288.89 110.89 290.8 109.65 293.03 108.76C295.26 107.87 297.72 107.43 300.41 107.43C303.04 107.43 305.34 107.85 307.3 108.69C309.27 109.53 310.95 110.65 312.36 112.03L310.16 115.09C310.03 115.29 309.86 115.46 309.66 115.6C309.46 115.75 309.17 115.82 308.82 115.82C308.44 115.82 308.06 115.67 307.67 115.38C307.28 115.09 306.78 114.77 306.18 114.42C305.58 114.07 304.81 113.76 303.89 113.46C302.97 113.17 301.8 113.02 300.38 113.02C298.71 113.02 297.18 113.31 295.79 113.89C294.39 114.47 293.19 115.3 292.19 116.38C291.19 117.46 290.4 118.77 289.84 120.31C289.28 121.85 289 123.59 289 125.51C289 127.5 289.28 129.27 289.84 130.82C290.4 132.37 291.17 133.68 292.13 134.74C293.09 135.8 294.23 136.61 295.53 137.18C296.84 137.74 298.24 138.02 299.74 138.02C300.64 138.02 301.45 137.97 302.18 137.87C302.91 137.77 303.58 137.62 304.19 137.4C304.8 137.19 305.38 136.91 305.93 136.58C306.48 136.25 307.02 135.83 307.56 135.34C307.72 135.19 307.89 135.07 308.07 134.98C308.24 134.91 308.44 134.87 308.65 134.87Z" fill="currentColor"></path>
<path d="M339.23 129.45V143.21H332.64V129.45L319.73 107.8H325.53C326.1 107.8 326.55 107.94 326.89 108.22C327.22 108.5 327.51 108.85 327.73 109.27L334.22 121.1C334.6 121.8 334.92 122.47 335.2 123.1C335.48 123.73 335.73 124.35 335.96 124.95C336.17 124.33 336.41 123.71 336.68 123.08C336.95 122.45 337.27 121.79 337.65 121.11L344.09 109.28C344.27 108.92 344.54 108.59 344.9 108.28C345.26 107.97 345.72 107.81 346.27 107.81H352.1L339.23 129.45Z" fill="currentColor"></path>
<path d="M240.25 0H220.88C220.3 0 219.78 0.36 219.57 0.9L185.93 87.79C185.57 88.71 186.25 89.71 187.24 89.71H211.07C212.41 86.01 215.06 83.1 215.42 81.89C215.88 80.35 215.06 79.21 213.49 76.59C211.92 73.97 212.15 73.35 212.15 73.35C210.68 73.81 208.03 74.17 206.91 73.51C205.8 72.86 205.9 71.91 206.29 70.96C206.55 70.31 206.39 70.21 206.19 69.59C205.96 68.97 206.62 68.64 206.62 68.64C205.87 68.51 205.64 67.95 205.83 67.49C205.99 67.06 205.83 66.41 205.83 66.41C204.16 66.12 203.93 65.33 204.13 64.77C204.33 64.18 205.34 62.64 205.93 61.37C206.42 60.32 205.96 60.03 206.09 58.85C206.22 57.67 207.33 53.58 207.33 53.58C206.61 51.68 207.46 48.08 215.48 47.29C221.24 46.73 224.74 48.08 226.71 50.89C231.23 57.4 225.24 63.95 224.55 68.89C223.94 73.25 226.78 74.33 230.55 78.93H230.56C234.34 74.33 237.17 73.25 236.56 68.89C235.87 63.95 229.88 57.4 234.4 50.89C236.36 48.07 239.87 46.73 245.63 47.29C253.65 48.08 254.5 51.68 253.78 53.58C253.78 53.58 254.89 57.67 255.02 58.85C255.15 60.03 254.69 60.32 255.18 61.37C255.77 62.65 256.78 64.19 256.98 64.77C257.18 65.33 256.95 66.11 255.28 66.41C255.28 66.41 255.12 67.06 255.28 67.49C255.48 67.95 255.25 68.5 254.49 68.64C254.49 68.64 255.14 68.97 254.92 69.59C254.72 70.21 254.56 70.31 254.82 70.96C255.21 71.91 255.31 72.86 254.2 73.51C253.09 74.16 250.44 73.8 248.96 73.35C248.96 73.35 249.19 73.97 247.62 76.59C246.05 79.21 245.23 80.35 245.69 81.89C246.05 83.1 248.7 86.01 250.04 89.71H273.87C274.86 89.71 275.54 88.72 275.18 87.79L241.56 0.9C241.35 0.36 240.83 0 240.25 0Z" fill="currentColor"></path>
</g>
<defs>
<clipPath id="clip0_1410_3">
<rect width="460.6" height="143.61" fill="white" transform="translate(0.5)"></rect>
</clipPath>
</defs>
</svg>