<svg width="551" height="551" viewBox="0 0 551 551" fill="none" xmlns="http://www.w3.org/2000/svg">
<g clip-path="url(#clip0_327_10653)">
<path d="M324.29 422.251H333.668V430.446L334.218 431.45V446.822H323.74V429.951L324.29 429.112V422.251Z" fill="#89B1FF"/>
<path d="M344.008 360.307H350.805L366.707 226.41H359.923L344.008 360.307Z" fill="#89B1FF"/>
<path d="M386.082 348.317H320.349C312.068 348.317 305.67 341.03 306.741 332.793L316.27 259.767C317.19 252.686 323.219 247.378 330.359 247.378H387.455C393.978 247.378 399.333 252.562 399.553 259.093L399.8 334.113C400.047 341.896 393.84 348.317 386.082 348.317ZM384.626 244.133H338.131C331.581 244.133 326.267 239.115 326.267 232.253C326.267 228.335 327.503 227.001 327.558 221.941C327.585 220.098 327.997 217.142 328.629 215.41C330.29 210.858 334.108 208.713 339.23 208.713H385.176C391.726 208.713 397.04 213.842 397.04 220.593L396.491 232.253C396.504 238.812 391.176 244.133 384.626 244.133Z" fill="#9fdcff"/>
<path d="M337.362 426.775H320.266C319.236 426.775 318.412 425.95 318.412 424.918V374.043H339.216V424.918C339.216 425.95 338.392 426.775 337.362 426.775Z" fill="#B1CCFF"/>
<path d="M382.237 378.718L277.89 378.485C271.519 378.485 266.37 373.315 266.37 366.948C266.37 360.568 271.533 355.412 277.89 355.412H386.618C395.2 355.412 397.603 360.321 397.603 365.862V367.347C397.603 372.256 395.584 375.363 391.259 377.11C388.595 378.155 385.107 378.718 382.237 378.718Z" fill="#9fdcff"/>
<path d="M370.579 378.829L287.173 378.485C281.021 378.485 276.023 373.494 276.023 367.32V366.55C276.023 360.39 281.008 355.385 287.173 355.385H371.362C377.513 355.385 382.512 360.376 382.512 366.55V367.32C382.498 373.494 377.335 378.829 370.579 378.829Z" fill="#89B1FF"/>
<path d="M367.132 379.034H277.3C271.148 379.034 266.15 374.043 266.15 367.869V366.549C266.15 360.389 271.134 355.384 277.3 355.384H367.132C373.284 355.384 378.282 360.376 378.282 366.549V367.869C378.282 374.016 373.27 379.034 367.132 379.034Z" fill="#9fdcff"/>
<path d="M275.487 478.639C279.241 478.639 282.285 475.592 282.285 471.833C282.285 468.074 279.241 465.027 275.487 465.027C271.733 465.027 268.69 468.074 268.69 471.833C268.69 475.592 271.733 478.639 275.487 478.639Z" fill="#9fdcff"/>
<path d="M326.995 476.893C326.995 480.647 323.946 483.699 320.198 483.699C316.449 483.699 313.4 480.661 313.4 476.893C313.4 475.394 313.895 473.992 314.705 472.878C315.941 471.187 317.932 470.101 320.184 470.101C322.752 470.101 324.99 471.531 326.143 473.648C326.693 474.611 326.995 475.724 326.995 476.893Z" fill="#9fdcff"/>
<path d="M375.715 478.639C379.469 478.639 382.512 475.592 382.512 471.833C382.512 468.074 379.469 465.027 375.715 465.027C371.961 465.027 368.917 468.074 368.917 471.833C368.917 475.592 371.961 478.639 375.715 478.639Z" fill="#9fdcff"/>
<path d="M379.202 467.557C378.516 467.955 377.637 467.447 377.651 466.635C377.651 466.085 377.596 465.508 377.362 465.027C376.209 462.593 351.959 458.083 337.486 455.594C335.275 455.209 333.05 456.185 331.801 458.055C329.81 461.067 327.791 464.477 326.912 467.337C325.937 470.513 327.352 472.067 326.143 473.648C324.99 471.544 322.752 470.1 320.184 470.1C317.932 470.1 315.941 471.187 314.705 472.878C314.595 472.562 314.54 472.218 314.568 471.833C314.677 470.21 316.875 468.808 317.877 466.347C319.044 463.5 319.621 460.613 319.909 458.083C320.115 456.227 318.495 454.687 316.641 454.989C303.033 457.285 274.458 462.387 273.208 465.04C272.975 465.522 272.906 466.113 272.92 466.649C272.933 467.447 272.068 467.955 271.368 467.57C268.731 466.058 264.667 463.17 269.143 461.947C287.228 456.942 321.09 443.192 323.658 442.999C324.042 442.298 324.303 441.844 324.303 441.844H333.696C333.696 441.844 333.874 442.284 334.149 442.972C334.163 442.972 334.19 442.985 334.204 442.999C342.36 446.739 367.929 458.22 381.399 461.947C385.903 463.17 381.839 466.044 379.202 467.557Z" fill="#B1CCFF"/>
<path d="M326.171 473.648C326.088 473.758 326.006 473.854 325.91 473.951C324.537 475.367 315.955 476.288 314.732 472.878C315.968 471.187 317.959 470.101 320.211 470.101C322.779 470.101 325.017 471.531 326.171 473.648Z" fill="#89B1FF"/>
<path d="M323.754 429.951C328.478 429.03 332.062 429.484 334.218 431.656V426.789H323.754V429.951Z" fill="#9fdcff"/>
</g>
<g clip-path="url(#clip1_327_10653)">
<path d="M331.24 315.951H267.06C262.912 315.951 259.55 312.566 259.55 308.391V268.511C259.55 264.336 262.912 260.951 267.06 260.951H331.24C335.387 260.951 338.749 264.336 338.749 268.511V308.39C338.75 312.566 335.388 315.951 331.24 315.951Z" fill="#89B1FF"/>
<path d="M298.424 288.254C298.424 287.225 299.162 286.311 300.31 285.724C300.943 285.401 300.93 284.528 300.122 284.275C299.414 284.053 298.607 284.119 297.793 284.374C297.145 284.58 296.558 284.944 296.083 285.433C295.609 285.923 295.261 286.522 295.072 287.179C294.24 290.091 296.388 292.689 299.15 292.689C299.672 292.689 300.183 292.67 300.633 292.47C301.423 292.118 301.317 291.228 300.636 290.936C299.304 290.364 298.424 289.377 298.424 288.254Z" fill="white"/>
</g>
<g clip-path="url(#clip2_327_10653)">
<path d="M187.308 115.47L186.723 117.229L186.739 117.472L185.952 119.924L185.769 119.916L184.947 119.123L184.855 118.869L186.146 116.917L186.343 116.817L187.254 115.42C187.278 115.377 187.324 115.42 187.308 115.47Z" fill="white"/>
<path d="M187.548 114.923L186.739 117.472C186.682 117.299 186.205 116.914 186.143 116.918L187.491 114.873C187.518 114.831 187.564 114.873 187.548 114.923Z" fill="#9fdcff"/>
<path d="M185.464 119.266C185.162 118.973 184.885 118.8 184.85 118.877L169.219 152.037L170.316 153.092L185.947 119.932C185.984 119.855 185.769 119.559 185.464 119.266Z" fill="#89B1FF"/>
<path d="M170.318 153.092C170.264 153.204 169.917 153.161 169.612 152.872C169.308 152.584 169.168 152.149 169.222 152.037C169.275 151.925 169.593 151.998 169.898 152.291C170.2 152.584 170.37 152.98 170.318 153.092Z" fill="#9fdcff"/>
</g>
<g clip-path="url(#clip3_327_10653)">
<path d="M465.941 323.554H112.039C111.832 323.554 111.63 323.487 111.465 323.362C111.299 323.237 111.179 323.062 111.122 322.863L108.333 313.165C108.298 313.041 108.291 312.91 108.315 312.783C108.338 312.656 108.391 312.536 108.469 312.432C108.546 312.329 108.647 312.245 108.762 312.188C108.878 312.13 109.005 312.1 109.134 312.1H468.672C468.823 312.1 468.972 312.135 469.108 312.203C469.243 312.27 469.361 312.369 469.453 312.49C469.544 312.611 469.605 312.752 469.633 312.901C469.66 313.05 469.653 313.203 469.611 313.349L466.88 322.847C466.822 323.051 466.698 323.23 466.529 323.358C466.36 323.485 466.153 323.554 465.941 323.554Z" fill="#9fdcff"/>
<path d="M130.703 485.35H123.316L143.076 317.827H155.952L130.703 485.35ZM447.3 485.35H454.686L434.926 317.827H422.051L447.3 485.35Z" fill="#9fdcff"/>
</g>
<g clip-path="url(#clip4_327_10653)">
<path d="M430.6 309.593V312.65H347V309.593C364.363 308.454 371.207 302.75 377.881 302.75C382.618 302.75 386.722 304.294 388.699 306.536C390.701 304.369 394.769 302.886 399.465 302.886C406.144 302.886 421.502 310.23 430.6 309.593Z" fill="#E8EDFF"/>
</g>
<g clip-path="url(#clip5_327_10653)">
<path d="M177.232 158.24C203.457 159.353 204.126 172.081 206.243 172.645C208.423 173.225 210.085 172.519 212.899 172.129C209.669 173.299 207.095 177.328 207.586 182.495C208.128 188.182 211.718 186.835 212.497 187.913C213.277 188.991 214.928 215.395 214.282 220.963C213.636 226.532 214.112 228.128 209.072 224.376C202.679 219.616 184.417 185.638 183.699 183.662C187.321 183.332 192.8 168.244 177.232 158.24Z" fill="white"/>
<path d="M200.284 171.089C204.206 175.37 211.121 173.172 212.438 172.286C208.835 175.229 203.597 179.215 202.14 183.362C200.583 187.793 195.83 190.427 196.152 198.929C194.938 195.711 193.912 192.807 193.518 190.068C192.36 182.033 190.913 172.585 186.02 167.376C182.202 163.313 180.739 160.11 179.866 158.694C179.934 156.081 185.999 155.496 200.284 171.089Z" fill="white"/>
<path d="M184.537 128.758C189.453 126.91 200.943 122.771 205.852 127.082C210.762 131.392 214.664 136.084 215.193 139.535C215.432 141.096 214.445 142.035 214.624 143.326C215.005 146.066 217.633 146.103 217.827 149.858C218.216 157.377 214.866 168.858 214.235 170.43C213.79 171.535 213.109 172.367 211.181 172.764C208.391 173.34 205.733 174.261 202.966 173.004C200.206 171.749 192.35 167.974 187.291 160.251C186.205 158.593 186.812 160.251 185.734 160.61C184.656 160.97 181.573 161.239 179.866 158.693C178.386 156.486 176.273 150.223 177.711 149.429C179.148 148.636 182.141 149.405 182.141 149.405C182.141 149.405 178.31 140.493 179.028 136.901C179.746 133.309 179.441 130.674 184.537 128.758Z" fill="white"/>
<path d="M192.44 164.524C192.09 156.181 202.32 143.489 213.307 143.038C219.563 143.489 216.313 132.47 209.505 128.549C206.993 127.102 201.421 122.801 189.746 126.178C186.095 127.234 181.402 129.697 179.988 132.549C175.997 140.601 182.231 146.801 183.01 148.666C182.699 147.915 180.286 146.242 178.789 147.948C177.645 149.252 177.538 152.6 177.801 154.029C178.208 156.238 179.631 158.451 181.101 160.409C186.548 167.661 196.086 169.179 193.982 167.542C193.443 167.123 192.782 166.712 192.44 164.524Z" fill="white"/>
<path d="M212.661 162.429C212.97 161.814 213.082 161.793 211.675 162.362C211.198 162.555 210.285 162.792 209.46 162.87C207.81 163.029 207.338 163.148 207.736 163.282C208.171 163.428 209.727 163.835 210.837 163.604C211.792 163.407 212.302 162.987 212.661 162.429ZM207.762 159.083C208.024 158.955 208.338 158.67 208.854 158.775C209.369 158.879 209.591 158.958 209.892 158.928C210.108 158.906 210.414 158.63 210.66 158.431C210.906 158.231 211.268 158.2 211.62 158.284C211.971 158.369 214.185 159.229 214.185 159.229L214.093 159.391C213.874 159.733 213.454 159.893 212.995 159.869C212.537 159.845 211.557 159.683 211.205 159.889C211.01 160.004 210.854 160.158 210.662 160.361C210.397 160.639 210.004 160.69 209.703 160.591C209.402 160.492 209.132 160.377 208.617 160.634C208.379 160.752 206.184 161.877 205.534 162.049C205.053 162.176 204.332 162.178 203.908 162.041C203.728 161.983 203.728 161.911 203.728 161.911C203.728 161.911 207.501 159.21 207.762 159.083ZM206.742 156.04C206.393 155.833 206.168 155.582 206.202 155.404C206.247 155.168 206.737 155.153 207.295 155.372C207.583 155.484 207.83 155.636 207.999 155.79L206.742 156.04ZM211.424 155.091C211.668 154.766 211.779 154.447 211.68 154.297C211.547 154.095 211.09 154.269 210.658 154.685C210.435 154.899 210.264 155.135 210.167 155.341L211.424 155.091Z" fill="#9fdcff"/>
<path d="M213.715 145.411C214.477 145.237 214.954 144.476 214.779 143.71C214.604 142.944 213.844 142.465 213.082 142.639C212.32 142.813 211.843 143.575 212.018 144.34C212.193 145.106 212.953 145.585 213.715 145.411Z" fill="#9fdcff"/>
<path d="M209.666 145.486C209.567 145.659 209.866 145.017 209.925 144.905C210.972 142.932 212.42 142.143 213.856 142.182C213.856 142.182 215.693 142.332 215.891 142.302C216.189 142.258 217.142 142.006 217.142 142.006L216.883 142.756C216.741 143.071 216.486 143.322 216.169 143.459C215.851 143.596 215.494 143.61 215.167 143.498C214.44 143.248 213.883 142.903 213.135 143.074L212.577 143.204C211.858 143.355 211.282 143.739 210.802 144.199C210.321 144.66 209.666 145.486 209.666 145.486Z" fill="#9fdcff"/>
<path d="M197.875 149.818C198.882 149.567 199.494 148.543 199.242 147.531C198.99 146.519 197.969 145.902 196.961 146.153C195.954 146.404 195.342 147.428 195.594 148.44C195.846 149.452 196.867 150.069 197.875 149.818Z" fill="#9fdcff"/>
<path d="M201.747 147.912L201.539 147.723C200.61 146.877 199.449 146.327 198.205 146.145C196.961 145.963 195.691 146.156 194.558 146.701L192.403 147.738L190.865 148.233L191.671 148.881C191.999 149.145 192.414 149.277 192.835 149.252C193.255 149.227 193.651 149.045 193.945 148.743C194.597 148.073 195.424 147.597 196.332 147.371L196.762 147.264C198.089 146.933 199.486 147.025 200.761 147.525L201.747 147.912ZM214.158 137.028C214.582 136.781 215.064 136.65 215.555 136.65C216.046 136.65 216.528 136.78 216.952 137.027L216.926 136.714C215.466 135.925 214.143 136.084 212.647 136.795L209.646 138.399C209.211 138.605 208.76 138.946 208.577 139.372C208.394 139.799 208.562 140.439 208.772 140.854L214.158 137.028ZM200.367 142.958L191.797 142.28C190.549 142.181 189.921 142.067 188.927 143.159L188.022 144.159L187.736 143.887L188.133 143.339C189.85 141.588 190.532 140.92 193.136 140.92L197.986 141.171C198.471 141.17 198.945 141.312 199.349 141.581C199.752 141.849 200.066 142.232 200.251 142.68L200.367 142.958Z" fill="#9fdcff"/>
<path d="M198.149 121.737C192.848 121.464 187.96 122.95 184.335 125.575C182.092 121.999 177.979 119.602 173.275 119.602C166.172 119.602 160.413 125.066 160.413 131.806C160.413 137.733 164.866 142.671 170.77 143.778C170.625 144.841 170.552 145.913 170.551 146.986C170.551 157.628 177.578 165.341 186.021 167.377C188.356 165.88 174.658 157.689 179.238 148.756C181.55 144.248 186.533 155.173 186.872 154.739C187.256 154.247 186.921 151.226 186.962 146.986C186.842 142.928 189.836 144.445 191.213 144.385C192.012 139.625 191.542 136.153 191.013 133.578C193.536 136.901 194.865 141.314 196.009 143.919C203.23 142.636 213.501 140.179 216.989 138.742C217.432 130.145 208.778 122.284 198.149 121.737Z" fill="#9fdcff"/>
<path d="M281.42 309.994C280.914 308.533 279.208 306.001 278.486 305.725C277.034 305.17 272.017 304.228 258.888 303.18C252.533 302.673 246.058 269.01 243.813 266.765C241.568 264.519 227.551 272.902 227.892 273.609C228.858 275.611 240.321 296.356 240.326 296.36C241.212 298.547 249.537 309.706 249.711 309.817C250.078 310.222 251.902 312.555 253.128 313.266C254.41 314.01 257.815 313.674 259.231 313.589C261.87 313.431 263.625 313.996 264.745 314.197C265.98 314.418 268.59 315.334 269.654 315.56C270.692 315.782 272.017 316.316 272.017 314.915C272.017 313.431 270.982 312.475 269.595 311.592C268.432 310.853 266.936 310.467 265.583 310.211C264.726 310.048 263.332 309.564 262.299 309.167C264.637 308.565 266.48 308.667 268.613 308.763H268.614C271.586 309.168 272.453 311.231 272.858 312.841C273.453 315.208 273.499 315.926 273.987 318.286C274.305 319.823 275.687 321.081 277.441 320.482C277.731 320.359 277.089 316.687 277.091 315.368C277.093 313.269 276.486 309.783 276.367 309.482C276.778 309.844 277.184 310.376 277.648 311.159C279.051 313.518 280.45 317.685 284.025 316.712C284.551 316.577 282.326 312.61 281.42 309.994Z" fill="white"/>
<path d="M229.096 276.086C229.096 276.086 245.347 266.93 245.408 270.642C244.049 273.681 232.881 276.73 234.754 286.348C233.047 283.324 232.025 281.449 229.096 276.086Z" fill="#9fdcff"/>
<path d="M210.025 186.779C216.39 188.332 221.39 188.999 225.605 190.442C228.951 191.588 232.437 191.882 233.54 205.144C234.18 212.846 235.514 237.331 238.155 247.501C242.975 266.062 245.048 268.404 245.408 270.642C245.689 272.396 230.314 278.296 229.655 277.135C227.141 272.705 224.354 266.411 221.565 260.12C216.055 247.69 226.689 221.921 210.025 186.779Z" fill="white"/>
<path d="M228.573 230.871C225.207 243.617 225.102 250.45 221.63 261.466C224.414 262.724 226.405 247.688 227.842 244.096C229.279 240.503 233.803 230.49 233.382 226.866C233.053 224.032 229.78 217.37 228.366 213.658C229.158 218.448 228.537 222.541 228.573 230.871Z" fill="#9fdcff"/>
<path d="M208.535 185.655C209.592 189.573 214.169 205.76 211.241 219.646C195.507 212.825 188.448 186.895 187.411 181.058C183.474 181.87 168.101 184.5 164.658 185.518C160.988 186.603 171.9 217.74 172.322 221.004C172.748 224.296 176.092 227.375 178.674 233.177C181.637 239.835 180.944 255.809 180.704 257.485C180.465 259.161 218.306 265.269 221.419 262.394C224.533 259.52 225.251 243.714 226.689 240.122C228.126 236.529 232.365 228.333 231.479 224.794C230.559 221.123 224.336 191.6 222.019 189.924C219.701 188.248 212.118 188.353 208.535 185.655Z" fill="white"/>
<path d="M220.124 387.982C225.71 377.202 237.951 399.453 237.951 399.453C237.951 399.453 219.287 417.051 217.409 421.158C215.53 425.264 216.969 430.057 215.837 434.772C215.023 438.162 214.728 443.485 214.594 446.275C214.459 449.065 215.855 455.679 217.049 457.34C218.244 459.002 219.496 463.084 215.744 461.587C211.295 459.811 210.647 458.934 208.74 457.198C206.572 455.224 200.778 449.067 199.913 445.755C198.915 441.933 198.328 434.407 197.799 430.886C197.27 427.365 194.188 423.623 191.862 418.859C190.404 415.869 191.987 409.149 197.584 408.53C203.181 407.912 205.203 406.796 207.589 405.242C210.199 403.544 217.13 393.758 220.124 387.982Z" fill="white"/>
<path d="M210.435 420.389C210.602 419.324 211.267 417.633 213.591 418.465C215.916 419.297 221.691 419.498 220.83 420.994C219.932 422.555 218.908 425.252 218.504 427.065C217.99 429.376 216.805 435.475 216.132 441.615C215.396 448.323 217.129 454.492 218.03 457.21C218.807 459.553 219.343 460.931 217.829 462.511C217.074 463.298 216.328 463.182 215.478 463.178C213.823 463.17 209.771 460.52 207.328 458.573C205.162 456.847 201.178 453.228 197.97 445.759C196.037 441.257 193.901 429.511 193.575 426.553C193.249 423.596 188.72 412.8 189.484 411.439C190.249 410.078 199.516 405.689 203.187 406.445C203.187 406.445 199.978 411.38 202.665 418.224C204.637 423.249 206.061 424.66 207.06 425.766C208.32 427.162 209.526 425.901 209.768 424.407C209.99 423.029 210.167 422.083 210.435 420.389Z" fill="#EAA097"/>
<path d="M205.74 406.312C204.007 409.394 201.504 414.767 202.664 418.225C203.568 420.916 204.926 423.004 206.081 424.538C206.747 425.423 204.223 426.719 202.218 425.847C200.685 425.179 199.073 423.603 198.095 421.078C196.918 418.038 196.211 420.81 193.896 420.357C190.839 419.76 188.484 413.904 189.484 411.44C190.484 408.975 194.479 407.713 196.669 406.874C199.817 405.669 204.6 405.191 205.74 406.312Z" fill="#9fdcff"/>
<path d="M217.43 462.848C216.775 463.628 213.027 466.415 212.097 466.514C211.167 466.613 206.463 465.043 201.817 460.789C196.931 456.315 193.655 450.463 191.332 443.817C189.648 439.002 187.291 430.508 184.908 423.143C184.103 420.654 182.87 416.599 183.605 413.774C184.064 412.008 189.718 409.58 190.909 409.648C190.459 410.446 190.238 412.32 191.058 416.378C191.892 420.512 193.079 424.362 193.934 427.658C194.455 429.665 195.523 435.306 196.422 438.462C197.477 442.169 199.302 447.106 200.98 450.073C204.446 456.203 208.963 459.483 210.947 460.807C212.989 462.171 216.09 463.834 217.43 462.848Z" fill="#9fdcff"/>
<path d="M212.438 440.697C211.097 428.63 233.634 440.337 233.634 440.337C233.634 440.337 227.886 465.337 228.605 469.795C229.323 474.253 233.694 478.656 235.37 483.207C236.576 486.479 238.559 490.95 239.996 493.345C241.432 495.74 243.652 497.904 247.315 500.136C250.484 502.067 252.39 503.817 249.156 504.851C246.434 505.721 243.938 506.044 241.388 505.659C238.489 505.222 230.586 502.298 225.985 498.744C222.859 496.329 220.916 491.29 216.779 488.056C213.973 485.863 210.081 484.541 205.502 481.87C202.628 480.194 201.152 472.504 205.463 468.882C209.774 465.26 210.478 464.629 211.6 462.011C212.827 459.15 213.157 447.163 212.438 440.697Z" fill="white"/>
<path d="M212.438 440.746C211.582 428.635 230.247 437.047 234.563 445.306C230.851 446.68 216.33 446.441 212.713 453.657C212.814 449.236 212.69 444.297 212.438 440.746ZM222.378 473.028C221.927 472.049 221.54 470.274 223.935 469.675C226.33 469.077 231.245 466.036 231.36 467.759C231.479 469.556 232.126 472.367 232.797 474.099C233.652 476.307 236.053 482.036 238.904 487.517C242.017 493.505 246.884 497.672 249.142 499.432C251.09 500.95 252.301 501.798 251.919 503.953C251.729 505.027 251.044 505.345 250.335 505.813C248.954 506.725 244.113 506.772 241 506.509C238.24 506.277 232.916 505.479 226.1 501.049C221.993 498.379 213.694 489.796 211.78 487.517C209.866 485.239 200.105 478.776 199.984 477.219C199.864 475.662 205.134 466.866 208.606 465.457C208.606 465.457 208.679 471.343 214.714 475.543C219.144 478.626 221.113 479.009 222.557 479.374C224.381 479.835 224.683 478.117 224.054 476.74C223.474 475.47 223.097 474.585 222.378 473.028Z" fill="#EAA097"/>
<path d="M210.367 463.908C210.444 463.904 210.519 463.93 210.577 463.98C210.635 464.031 210.67 464.102 210.676 464.179C210.97 467.726 211.896 473.364 214.714 475.542C216.959 477.279 219.248 478.261 221.06 478.895C222.106 479.261 220.726 481.741 218.575 482.128C216.929 482.425 214.713 482.008 212.498 480.451C209.83 478.577 210.782 481.275 208.606 482.184C205.732 483.385 200.521 479.823 199.984 477.218C199.447 474.614 202.068 471.346 203.424 469.431C205.262 466.838 208.668 463.975 210.367 463.908Z" fill="#9fdcff"/>
<path d="M251.775 504.453C251.663 505.466 250.094 509.865 249.375 510.464C248.657 511.062 243.873 512.369 237.646 511.411C231.099 510.404 225.124 507.356 219.501 503.119C215.428 500.049 208.75 494.294 202.679 489.493C200.627 487.871 197.35 485.182 196.392 482.425C195.792 480.701 199.146 475.543 200.175 474.938C200.244 475.851 201.101 477.533 204.036 480.452C207.026 483.427 210.151 485.97 212.693 488.236C214.241 489.616 218.262 493.715 220.761 495.84C223.698 498.337 227.957 501.429 231 502.965C237.287 506.138 242.864 506.357 245.25 506.357C247.705 506.356 251.208 506.018 251.775 504.453ZM221.27 285.805C224.683 286.883 227.841 286.823 230.341 288.14C233.6 289.857 274.079 331.36 283.389 353.255C286.299 360.097 281.534 368.729 278.9 372.201C277.292 374.319 251.633 395.959 251.597 396.988C251.571 397.719 252.424 398.064 252.315 398.665C252.076 399.982 244.052 406.568 241.657 407.526C239.262 408.484 226.95 400.451 221.871 392.852C219.294 388.995 231.899 376.988 233.275 377.23C234.292 377.41 234.897 377.851 235.43 376.751C236.117 375.334 245.849 360.346 251.597 360.346C226.689 348.311 198.667 322.985 185.973 306.221C183.269 302.649 187.171 284.352 206.57 284.427C215.075 284.461 216.617 284.335 221.27 285.805Z" fill="#9fdcff"/>
<path d="M195.83 291.008C215.612 300.534 250.729 350.917 252.431 356.22C254.147 361.567 255.429 372.082 252.435 378.818L238.471 421.778C239.233 422.136 240.58 422.405 239.682 425.638C238.95 428.274 237.011 442.972 236.089 445.127C235.167 447.282 213.671 446.424 210.025 445.127C205.733 443.6 207.832 429.31 208.102 423.473C208.158 421.597 209.146 421.148 210.025 421.373C210.025 408.441 213.078 385.493 223.516 373.28C221.225 371.044 214.445 367.118 210.025 363.58C203.418 358.291 179.382 341.595 162.839 320.831C154.397 310.233 154.487 298.648 156.934 291.008C158.373 286.519 185.928 289.565 195.83 291.008Z" fill="#9fdcff"/>
<path d="M180.944 255.808C197.825 261.888 219.474 261.816 221.629 261.466C223.785 261.116 221.565 274.781 222.617 276.285C223.775 277.938 224.538 277.472 224.52 279.218C224.499 281.313 227.305 280.956 228.006 282.688C228.62 284.203 227.707 286.164 227.842 286.822C227.914 287.176 229.562 287.566 230.341 288.139C231.22 288.787 231.891 289.385 231.745 291.008C231.598 292.63 219.042 294.835 207.529 301.072L204.654 302.628C198.985 294.271 158.707 296.94 156.732 299.096C154.756 301.252 153.461 275.566 180.944 255.808ZM205.856 174.649L195.172 182.837C194.989 182.977 194.781 183.08 194.558 183.139C194.336 183.199 194.104 183.214 193.875 183.184C193.647 183.154 193.427 183.079 193.227 182.963C193.028 182.848 192.853 182.694 192.713 182.512L174.755 159.081C174.615 158.898 174.512 158.69 174.453 158.467C174.393 158.245 174.378 158.013 174.408 157.784C174.438 157.556 174.513 157.336 174.629 157.136C174.744 156.937 174.897 156.762 175.08 156.622L185.764 148.434C185.947 148.294 186.156 148.191 186.378 148.132C186.601 148.072 186.833 148.057 187.061 148.087C187.29 148.118 187.51 148.193 187.709 148.308C187.909 148.423 188.083 148.577 188.224 148.76L206.182 172.19C206.322 172.373 206.425 172.581 206.484 172.804C206.544 173.027 206.559 173.259 206.529 173.487C206.498 173.715 206.423 173.935 206.308 174.135C206.193 174.334 206.039 174.509 205.856 174.649Z" fill="#9fdcff"/>
<path d="M180.226 216.382C187.553 190.697 184.617 188.179 185.907 185.79C186.185 185.276 186.343 184.703 186.3 184.119C185.651 175.466 185.138 170.58 186.02 167.376C186.948 163.673 192.576 158.318 194.051 157.27C194.91 156.659 196.412 157.411 197.165 158.24C197.769 158.904 197.551 160.364 197.335 160.648C197.335 160.648 196.66 159.797 196.397 159.499C195.225 160.74 193.093 162.62 192.44 164.525C191.481 167.316 193.966 164.222 194.685 163.674C195.403 163.126 197.946 161.083 198.906 160.79C199.939 160.476 200.682 161.003 201.061 161.951C201.405 162.812 201.045 164.234 200.567 164.63C200.429 164.744 199.774 163.674 199.436 163.354C198.851 163.842 198.253 164.357 197.824 164.832C196.93 165.82 196.151 166.793 196.305 167.376C196.96 166.748 199.494 164.839 200.788 163.97C201.504 163.489 203.037 163.462 203.727 164.844C204.277 165.945 203.339 167.229 202.872 167.705C202.591 167.38 202.182 166.945 201.804 166.481C201.395 166.863 201.113 167.125 200.881 167.375C200.009 168.318 199.298 169.142 199.298 169.142C199.298 169.142 200.991 167.884 202.289 167.106C203.551 166.349 204.115 166.089 205.372 166.807C206.63 167.525 207.593 167.932 208.153 168.139C208.74 168.356 207.826 169.446 206.839 169.352C205.745 169.248 204.519 168.446 203.727 169.165C202.853 169.958 201.959 170.67 201.33 171.388C200.702 172.106 199.925 173.454 199.814 174.576C199.718 175.546 200.24 180.998 198.174 184.141C196.108 187.284 197.823 217.849 197.164 222.367C197.678 224.555 184.776 217.819 180.226 216.382Z" fill="white"/>
<path d="M180.361 215.941C180.361 215.941 197.388 218.248 197.312 215.064C192.141 214.916 185.35 213.928 183.333 204.339C182.513 207.31 181.796 210.461 180.361 215.941Z" fill="#9fdcff"/>
<path d="M180.69 212.041C180.802 216.205 178.674 233.176 174.118 237.599C174.657 233.176 178.724 223.162 180.539 215.226C182.505 214.294 194.937 213.954 197.326 215.076C198.265 228.457 196.276 240.18 195.829 243.816C195.243 248.592 187.26 264.902 181.511 265.361C178.517 265.601 175.677 264.263 169.036 260.258C163.904 257.164 159.533 248.663 157.328 240.942C155.48 234.473 152.585 195.695 156.297 188.541C159.101 183.137 168.794 183.566 172.464 183.242C177.403 182.806 180.764 182.523 184.79 181.581C182.74 189.17 180.518 205.693 180.69 212.041Z" fill="white"/>
</g>
<g clip-path="url(#clip6_327_10653)">
<path d="M340.192 175.7H258.127C254.671 175.7 251.906 172.906 251.906 169.456L251.933 61.4255C251.933 57.9754 254.671 55.1958 258.127 55.1958H340.192C343.648 55.1958 346.45 57.9925 346.45 61.4425V169.454C346.45 172.904 343.648 175.7 340.192 175.7Z" fill="#89B1FF"/>
<path d="M336.445 171.042H258.108C254.652 171.042 251.85 168.246 251.85 164.796V60.9474C251.85 57.4974 254.652 54.7007 258.108 54.7007H336.445C339.902 54.7007 342.704 57.4974 342.704 60.9474V164.796C342.704 168.246 339.902 171.042 336.445 171.042Z" fill="white"/>
<path d="M310.795 89.6253C316.18 89.6253 320.546 85.2679 320.546 79.8927C320.546 74.5176 316.18 70.1602 310.795 70.1602C305.41 70.1602 301.045 74.5176 301.045 79.8927C301.045 85.2679 305.41 89.6253 310.795 89.6253Z" fill="#89B1FF"/>
<path d="M319.497 101.696C316.302 110.391 303.7 116.705 292.522 112.612C281.345 108.518 275.823 95.5681 279.019 86.873L319.497 101.696Z" fill="#9fdcff"/>
<path d="M316.628 136.913C315.343 126.994 306.851 119.333 296.567 119.333C286.282 119.333 277.79 126.994 276.505 136.913C276.395 137.766 276.34 138.636 276.34 139.522V164.555H316.793V139.522C316.793 138.636 316.738 137.766 316.628 136.913Z" fill="#89B1FF"/>
</g>
<defs>
<clipPath id="clip0_327_10653">
<rect width="133.65" height="275" fill="white" transform="translate(266.15 208.7)"/>
</clipPath>
<clipPath id="clip1_327_10653">
<rect width="79.2" height="55" fill="white" transform="translate(259.55 260.95)"/>
</clipPath>
<clipPath id="clip2_327_10653">
<rect width="26.95" height="38.5" fill="white" transform="translate(164.95 114.65)"/>
</clipPath>
<clipPath id="clip3_327_10653">
<rect width="361.35" height="173.25" fill="white" transform="translate(108.3 312.1)"/>
</clipPath>
<clipPath id="clip4_327_10653">
<rect width="83.6" height="9.9" fill="white" transform="translate(347 302.75)"/>
</clipPath>
<clipPath id="clip5_327_10653">
<rect width="129.8" height="392.15" fill="white" transform="translate(154.5 119.601)"/>
</clipPath>
<clipPath id="clip6_327_10653">
<rect width="94.6" height="121" fill="white" transform="translate(251.85 54.7002)"/>
</clipPath>
</defs>
</svg>
