<svg width="421" height="421" viewBox="0 0 421 421" fill="none" xmlns="http://www.w3.org/2000/svg">
<g clip-path="url(#clip0_327_11015)">
<path d="M57.4218 178.519H36.5494C35.743 178.519 35.0912 179.133 35.0912 179.886V188.539L35.5918 189.188V206.532C35.5918 207.288 35.743 207.899 36.5494 207.899H46.7168L47.493 208.372H57.4184C58.2248 208.372 58.8766 207.757 58.8766 207.004V179.886C58.88 179.13 58.2282 178.519 57.4218 178.519Z" fill="#B1CCFF"/>
<path d="M37.2382 200.941C36.9493 200.941 36.657 200.846 36.4184 200.654L29.0869 194.719C26.6677 192.76 25.28 189.919 25.28 186.92V182.888C25.28 180.478 27.3699 178.519 29.9403 178.519H36.751C37.4432 178.519 38.0043 179.045 38.0043 179.694C38.0043 180.343 37.4432 180.869 36.751 180.869H29.9403C28.7542 180.869 27.7899 181.773 27.7899 182.885V186.917C27.7899 189.229 28.8618 191.425 30.7266 192.933L38.0581 198.868C38.5822 199.293 38.6394 200.037 38.1891 200.528C37.9405 200.802 37.591 200.941 37.2382 200.941Z" fill="#B1CCFF"/>
<path d="M35.0912 192.675V188.171C35.0912 186.196 35.5616 184.347 37.6515 184.592C38.972 184.75 40.5243 185.682 41.949 188.284C42.715 189.683 43.8138 190.691 45.571 198.203C46.8613 203.729 47.493 208.375 47.493 208.375H36.3445C35.6523 208.375 35.0912 207.849 35.0912 207.2V199.64L35.5918 199.111V195.343L35.0912 193.932V192.675Z" fill="#9FDCFF"/>
<path d="M35.0912 193.765L36.6502 195.961L37.4768 197.312C37.6885 197.662 37.7422 198.077 37.6213 198.462L37.5339 198.736C37.2886 199.504 36.4318 199.949 35.6053 199.734L35.0912 199.599V193.765Z" fill="#292828"/>
</g>
<g clip-path="url(#clip1_327_11015)">
<path d="M25.28 209.197H382.28V217.177H25.28V209.197Z" fill="#292828"/>
</g>
<g clip-path="url(#clip2_327_11015)">
<path d="M66.443 181.892H189.903V156.682L199.577 150.42V32.8027H66.443V181.892Z" fill="white"/>
<path d="M189.903 183.997H66.443C65.8852 183.997 65.3503 183.775 64.9559 183.38C64.5616 182.985 64.34 182.45 64.34 181.891V32.8023C64.34 32.2439 64.5616 31.7084 64.9559 31.3135C65.3503 30.9186 65.8852 30.6968 66.443 30.6968H199.577C200.134 30.6968 200.669 30.9186 201.064 31.3135C201.458 31.7084 201.68 32.2439 201.68 32.8023V150.419C201.68 151.134 201.318 151.8 200.718 152.188L192.006 157.828V181.892C192.006 182.45 191.784 182.985 191.39 183.38C190.995 183.775 190.46 183.997 189.903 183.997ZM68.546 179.786H187.8V156.681C187.8 155.967 188.161 155.301 188.761 154.913L197.474 149.273V34.9079H68.546V179.786Z" fill="#292828"/>
<path d="M179.58 58.7262H178.323C178.155 58.7262 177.995 58.6597 177.877 58.5412C177.758 58.4228 177.692 58.2621 177.692 58.0946C177.692 57.927 177.758 57.7664 177.877 57.6479C177.995 57.5294 178.155 57.4629 178.323 57.4629H179.58C179.747 57.4629 179.908 57.5294 180.026 57.6479C180.144 57.7664 180.211 57.927 180.211 58.0946C180.211 58.2621 180.144 58.4228 180.026 58.5412C179.908 58.6597 179.747 58.7262 179.58 58.7262ZM173.275 58.7262H168.228C168.061 58.7262 167.9 58.6597 167.782 58.5412C167.664 58.4228 167.597 58.2621 167.597 58.0946C167.597 57.927 167.664 57.7664 167.782 57.6479C167.9 57.5294 168.061 57.4629 168.228 57.4629H173.275C173.443 57.4629 173.603 57.5294 173.722 57.6479C173.84 57.7664 173.906 57.927 173.906 58.0946C173.906 58.2621 173.84 58.4228 173.722 58.5412C173.603 58.6597 173.443 58.7262 173.275 58.7262ZM163.181 58.7262H158.134C157.966 58.7262 157.806 58.6597 157.688 58.5412C157.569 58.4228 157.503 58.2621 157.503 58.0946C157.503 57.927 157.569 57.7664 157.688 57.6479C157.806 57.5294 157.966 57.4629 158.134 57.4629H163.181C163.348 57.4629 163.509 57.5294 163.627 57.6479C163.745 57.7664 163.812 57.927 163.812 58.0946C163.812 58.2621 163.745 58.4228 163.627 58.5412C163.509 58.6597 163.348 58.7262 163.181 58.7262ZM153.086 58.7262H148.039C147.872 58.7262 147.711 58.6597 147.593 58.5412C147.475 58.4228 147.408 58.2621 147.408 58.0946C147.408 57.927 147.475 57.7664 147.593 57.6479C147.711 57.5294 147.872 57.4629 148.039 57.4629H153.086C153.254 57.4629 153.414 57.5294 153.533 57.6479C153.651 57.7664 153.717 57.927 153.717 58.0946C153.717 58.2621 153.651 58.4228 153.533 58.5412C153.414 58.6597 153.254 58.7262 153.086 58.7262ZM142.992 58.7262H137.945C137.777 58.7262 137.617 58.6597 137.499 58.5412C137.38 58.4228 137.314 58.2621 137.314 58.0946C137.314 57.927 137.38 57.7664 137.499 57.6479C137.617 57.5294 137.777 57.4629 137.945 57.4629H142.992C143.159 57.4629 143.32 57.5294 143.438 57.6479C143.556 57.7664 143.623 57.927 143.623 58.0946C143.623 58.2621 143.556 58.4228 143.438 58.5412C143.32 58.6597 143.159 58.7262 142.992 58.7262ZM132.897 58.7262H127.85C127.683 58.7262 127.522 58.6597 127.404 58.5412C127.286 58.4228 127.219 58.2621 127.219 58.0946C127.219 57.927 127.286 57.7664 127.404 57.6479C127.522 57.5294 127.683 57.4629 127.85 57.4629H132.897C133.065 57.4629 133.225 57.5294 133.344 57.6479C133.462 57.7664 133.528 57.927 133.528 58.0946C133.528 58.2621 133.462 58.4228 133.344 58.5412C133.225 58.6597 133.065 58.7262 132.897 58.7262ZM122.803 58.7262H117.756C117.588 58.7262 117.428 58.6597 117.31 58.5412C117.191 58.4228 117.125 58.2621 117.125 58.0946C117.125 57.927 117.191 57.7664 117.31 57.6479C117.428 57.5294 117.588 57.4629 117.756 57.4629H122.803C122.97 57.4629 123.131 57.5294 123.249 57.6479C123.367 57.7664 123.434 57.927 123.434 58.0946C123.434 58.2621 123.367 58.4228 123.249 58.5412C123.131 58.6597 122.97 58.7262 122.803 58.7262ZM112.709 58.7262H107.661C107.494 58.7262 107.333 58.6597 107.215 58.5412C107.097 58.4228 107.03 58.2621 107.03 58.0946C107.03 57.927 107.097 57.7664 107.215 57.6479C107.333 57.5294 107.494 57.4629 107.661 57.4629H112.709C112.876 57.4629 113.036 57.5294 113.155 57.6479C113.273 57.7664 113.339 57.927 113.339 58.0946C113.339 58.2621 113.273 58.4228 113.155 58.5412C113.036 58.6597 112.876 58.7262 112.709 58.7262ZM102.614 58.7262H97.5668C97.3995 58.7262 97.239 58.6597 97.1207 58.5412C97.0024 58.4228 96.9359 58.2621 96.9359 58.0946C96.9359 57.927 97.0024 57.7664 97.1207 57.6479C97.239 57.5294 97.3995 57.4629 97.5668 57.4629H102.614C102.781 57.4629 102.942 57.5294 103.06 57.6479C103.178 57.7664 103.245 57.927 103.245 58.0946C103.245 58.2621 103.178 58.4228 103.06 58.5412C102.942 58.6597 102.781 58.7262 102.614 58.7262ZM92.5196 58.7262H87.4723C87.305 58.7262 87.1445 58.6597 87.0262 58.5412C86.9079 58.4228 86.8414 58.2621 86.8414 58.0946C86.8414 57.927 86.9079 57.7664 87.0262 57.6479C87.1445 57.5294 87.305 57.4629 87.4723 57.4629H92.5196C92.6869 57.4629 92.8474 57.5294 92.9657 57.6479C93.084 57.7664 93.1505 57.927 93.1505 58.0946C93.1505 58.2621 93.084 58.4228 92.9657 58.5412C92.8474 58.6597 92.6869 58.7262 92.5196 58.7262ZM179.58 103.256H178.323C178.155 103.256 177.995 103.19 177.877 103.071C177.758 102.953 177.692 102.792 177.692 102.625C177.692 102.457 177.758 102.297 177.877 102.178C177.995 102.06 178.155 101.993 178.323 101.993H179.58C179.747 101.993 179.908 102.06 180.026 102.178C180.144 102.297 180.211 102.457 180.211 102.625C180.211 102.792 180.144 102.953 180.026 103.071C179.908 103.19 179.747 103.256 179.58 103.256ZM173.275 103.256H168.228C168.061 103.256 167.9 103.19 167.782 103.071C167.664 102.953 167.597 102.792 167.597 102.625C167.597 102.457 167.664 102.297 167.782 102.178C167.9 102.06 168.061 101.993 168.228 101.993H173.275C173.443 101.993 173.603 102.06 173.722 102.178C173.84 102.297 173.906 102.457 173.906 102.625C173.906 102.792 173.84 102.953 173.722 103.071C173.603 103.19 173.443 103.256 173.275 103.256ZM163.181 103.256H158.134C157.966 103.256 157.806 103.19 157.688 103.071C157.569 102.953 157.503 102.792 157.503 102.625C157.503 102.457 157.569 102.297 157.688 102.178C157.806 102.06 157.966 101.993 158.134 101.993H163.181C163.348 101.993 163.509 102.06 163.627 102.178C163.745 102.297 163.812 102.457 163.812 102.625C163.812 102.792 163.745 102.953 163.627 103.071C163.509 103.19 163.348 103.256 163.181 103.256ZM153.086 103.256H148.039C147.872 103.256 147.711 103.19 147.593 103.071C147.475 102.953 147.408 102.792 147.408 102.625C147.408 102.457 147.475 102.297 147.593 102.178C147.711 102.06 147.872 101.993 148.039 101.993H153.086C153.254 101.993 153.414 102.06 153.533 102.178C153.651 102.297 153.717 102.457 153.717 102.625C153.717 102.792 153.651 102.953 153.533 103.071C153.414 103.19 153.254 103.256 153.086 103.256ZM142.992 103.256H137.945C137.777 103.256 137.617 103.19 137.499 103.071C137.38 102.953 137.314 102.792 137.314 102.625C137.314 102.457 137.38 102.297 137.499 102.178C137.617 102.06 137.777 101.993 137.945 101.993H142.992C143.159 101.993 143.32 102.06 143.438 102.178C143.556 102.297 143.623 102.457 143.623 102.625C143.623 102.792 143.556 102.953 143.438 103.071C143.32 103.19 143.159 103.256 142.992 103.256ZM132.897 103.256H127.85C127.683 103.256 127.522 103.19 127.404 103.071C127.286 102.953 127.219 102.792 127.219 102.625C127.219 102.457 127.286 102.297 127.404 102.178C127.522 102.06 127.683 101.993 127.85 101.993H132.897C133.065 101.993 133.225 102.06 133.344 102.178C133.462 102.297 133.528 102.457 133.528 102.625C133.528 102.792 133.462 102.953 133.344 103.071C133.225 103.19 133.065 103.256 132.897 103.256ZM122.803 103.256H117.756C117.588 103.256 117.428 103.19 117.31 103.071C117.191 102.953 117.125 102.792 117.125 102.625C117.125 102.457 117.191 102.297 117.31 102.178C117.428 102.06 117.588 101.993 117.756 101.993H122.803C122.97 101.993 123.131 102.06 123.249 102.178C123.367 102.297 123.434 102.457 123.434 102.625C123.434 102.792 123.367 102.953 123.249 103.071C123.131 103.19 122.97 103.256 122.803 103.256ZM112.709 103.256H107.661C107.494 103.256 107.333 103.19 107.215 103.071C107.097 102.953 107.03 102.792 107.03 102.625C107.03 102.457 107.097 102.297 107.215 102.178C107.333 102.06 107.494 101.993 107.661 101.993H112.709C112.876 101.993 113.036 102.06 113.155 102.178C113.273 102.297 113.339 102.457 113.339 102.625C113.339 102.792 113.273 102.953 113.155 103.071C113.036 103.19 112.876 103.256 112.709 103.256ZM102.614 103.256H97.5668C97.3995 103.256 97.239 103.19 97.1207 103.071C97.0024 102.953 96.9359 102.792 96.9359 102.625C96.9359 102.457 97.0024 102.297 97.1207 102.178C97.239 102.06 97.3995 101.993 97.5668 101.993H102.614C102.781 101.993 102.942 102.06 103.06 102.178C103.178 102.297 103.245 102.457 103.245 102.625C103.245 102.792 103.178 102.953 103.06 103.071C102.942 103.19 102.781 103.256 102.614 103.256ZM92.5196 103.256H87.4723C87.305 103.256 87.1445 103.19 87.0262 103.071C86.9079 102.953 86.8414 102.792 86.8414 102.625C86.8414 102.457 86.9079 102.297 87.0262 102.178C87.1445 102.06 87.305 101.993 87.4723 101.993H92.5196C92.6869 101.993 92.8474 102.06 92.9657 102.178C93.084 102.297 93.1505 102.457 93.1505 102.625C93.1505 102.792 93.084 102.953 92.9657 103.071C92.8474 103.19 92.6869 103.256 92.5196 103.256ZM179.58 147.787H178.323C178.155 147.787 177.995 147.721 177.877 147.602C177.758 147.484 177.692 147.323 177.692 147.155C177.692 146.988 177.758 146.827 177.877 146.709C177.995 146.59 178.155 146.524 178.323 146.524H179.58C179.747 146.524 179.908 146.59 180.026 146.709C180.144 146.827 180.211 146.988 180.211 147.155C180.211 147.323 180.144 147.484 180.026 147.602C179.908 147.721 179.747 147.787 179.58 147.787ZM173.275 147.787H168.228C168.061 147.787 167.9 147.721 167.782 147.602C167.664 147.484 167.597 147.323 167.597 147.155C167.597 146.988 167.664 146.827 167.782 146.709C167.9 146.59 168.061 146.524 168.228 146.524H173.275C173.443 146.524 173.603 146.59 173.722 146.709C173.84 146.827 173.906 146.988 173.906 147.155C173.906 147.323 173.84 147.484 173.722 147.602C173.603 147.721 173.443 147.787 173.275 147.787ZM163.181 147.787H158.134C157.966 147.787 157.806 147.721 157.688 147.602C157.569 147.484 157.503 147.323 157.503 147.155C157.503 146.988 157.569 146.827 157.688 146.709C157.806 146.59 157.966 146.524 158.134 146.524H163.181C163.348 146.524 163.509 146.59 163.627 146.709C163.745 146.827 163.812 146.988 163.812 147.155C163.812 147.323 163.745 147.484 163.627 147.602C163.509 147.721 163.348 147.787 163.181 147.787ZM153.086 147.787H148.039C147.872 147.787 147.711 147.721 147.593 147.602C147.475 147.484 147.408 147.323 147.408 147.155C147.408 146.988 147.475 146.827 147.593 146.709C147.711 146.59 147.872 146.524 148.039 146.524H153.086C153.254 146.524 153.414 146.59 153.533 146.709C153.651 146.827 153.717 146.988 153.717 147.155C153.717 147.323 153.651 147.484 153.533 147.602C153.414 147.721 153.254 147.787 153.086 147.787ZM142.992 147.787H137.945C137.777 147.787 137.617 147.721 137.499 147.602C137.38 147.484 137.314 147.323 137.314 147.155C137.314 146.988 137.38 146.827 137.499 146.709C137.617 146.59 137.777 146.524 137.945 146.524H142.992C143.159 146.524 143.32 146.59 143.438 146.709C143.556 146.827 143.623 146.988 143.623 147.155C143.623 147.323 143.556 147.484 143.438 147.602C143.32 147.721 143.159 147.787 142.992 147.787ZM132.897 147.787H127.85C127.683 147.787 127.522 147.721 127.404 147.602C127.286 147.484 127.219 147.323 127.219 147.155C127.219 146.988 127.286 146.827 127.404 146.709C127.522 146.59 127.683 146.524 127.85 146.524H132.897C133.065 146.524 133.225 146.59 133.344 146.709C133.462 146.827 133.528 146.988 133.528 147.155C133.528 147.323 133.462 147.484 133.344 147.602C133.225 147.721 133.065 147.787 132.897 147.787ZM122.803 147.787H117.756C117.588 147.787 117.428 147.721 117.31 147.602C117.191 147.484 117.125 147.323 117.125 147.155C117.125 146.988 117.191 146.827 117.31 146.709C117.428 146.59 117.588 146.524 117.756 146.524H122.803C122.97 146.524 123.131 146.59 123.249 146.709C123.367 146.827 123.434 146.988 123.434 147.155C123.434 147.323 123.367 147.484 123.249 147.602C123.131 147.721 122.97 147.787 122.803 147.787ZM112.709 147.787H107.661C107.494 147.787 107.333 147.721 107.215 147.602C107.097 147.484 107.03 147.323 107.03 147.155C107.03 146.988 107.097 146.827 107.215 146.709C107.333 146.59 107.494 146.524 107.661 146.524H112.709C112.876 146.524 113.036 146.59 113.155 146.709C113.273 146.827 113.339 146.988 113.339 147.155C113.339 147.323 113.273 147.484 113.155 147.602C113.036 147.721 112.876 147.787 112.709 147.787ZM102.614 147.787H97.5668C97.3995 147.787 97.239 147.721 97.1207 147.602C97.0024 147.484 96.9359 147.323 96.9359 147.155C96.9359 146.988 97.0024 146.827 97.1207 146.709C97.239 146.59 97.3995 146.524 97.5668 146.524H102.614C102.781 146.524 102.942 146.59 103.06 146.709C103.178 146.827 103.245 146.988 103.245 147.155C103.245 147.323 103.178 147.484 103.06 147.602C102.942 147.721 102.781 147.787 102.614 147.787ZM92.5196 147.787H87.4723C87.305 147.787 87.1445 147.721 87.0262 147.602C86.9079 147.484 86.8414 147.323 86.8414 147.155C86.8414 146.988 86.9079 146.827 87.0262 146.709C87.1445 146.59 87.305 146.524 87.4723 146.524H92.5196C92.6869 146.524 92.8474 146.59 92.9657 146.709C93.084 146.827 93.1505 146.988 93.1505 147.155C93.1505 147.323 93.084 147.484 92.9657 147.602C92.8474 147.721 92.6869 147.787 92.5196 147.787Z" fill="#9FDCFF"/>
</g>
<g clip-path="url(#clip3_327_11015)">
<path d="M213.026 32.8076H352.454V109.226H213.026V32.8076Z" fill="#9FDCFF"/>
<path d="M352.454 111.337H213.026C212.467 111.337 211.932 111.114 211.537 110.719C211.142 110.323 210.92 109.786 210.92 109.226V32.8076C210.92 32.2478 211.142 31.7109 211.537 31.315C211.932 30.9192 212.467 30.6968 213.026 30.6968H352.454C353.013 30.6968 353.548 30.9192 353.943 31.315C354.338 31.7109 354.56 32.2478 354.56 32.8076V109.226C354.56 109.786 354.338 110.323 353.943 110.719C353.548 111.114 353.013 111.337 352.454 111.337ZM215.132 107.115H350.348V34.9184H215.132V107.115Z" fill="#292828"/>
<path d="M331.084 94.6727H321.167C321 94.6727 320.839 94.606 320.721 94.4872C320.602 94.3685 320.536 94.2074 320.536 94.0395V45.9125C320.536 45.7446 320.602 45.5835 320.721 45.4648C320.839 45.346 321 45.2793 321.167 45.2793H331.084C331.251 45.2793 331.412 45.346 331.53 45.4648C331.649 45.5835 331.715 45.7446 331.715 45.9125V94.0395C331.716 94.3894 331.433 94.6727 331.084 94.6727ZM321.799 93.4062H330.452V46.5458H321.799V93.4062Z" fill="white"/>
<path d="M311.251 94.6727H301.335C301.168 94.6727 301.007 94.606 300.888 94.4873C300.77 94.3685 300.703 94.2074 300.703 94.0395V52.2451C300.703 52.0771 300.77 51.916 300.888 51.7973C301.007 51.6785 301.168 51.6118 301.335 51.6118H311.251C311.419 51.6118 311.579 51.6785 311.698 51.7973C311.816 51.916 311.883 52.0771 311.883 52.2451V94.0395C311.883 94.2074 311.816 94.3685 311.698 94.4873C311.579 94.606 311.419 94.6727 311.251 94.6727ZM301.967 93.4062H310.619V52.8783H301.967V93.4062ZM291.419 94.6727H281.503C281.335 94.6727 281.174 94.606 281.056 94.4873C280.938 94.3685 280.871 94.2074 280.871 94.0395V67.443C280.871 67.2751 280.938 67.114 281.056 66.9953C281.174 66.8765 281.335 66.8098 281.503 66.8098H291.419C291.586 66.8098 291.747 66.8765 291.866 66.9953C291.984 67.114 292.051 67.2751 292.051 67.443V94.0395C292.051 94.2074 291.984 94.3685 291.866 94.4873C291.747 94.606 291.586 94.6727 291.419 94.6727ZM282.134 93.4062H290.787V68.0763H282.134V93.4062ZM271.586 94.6727H261.67C261.502 94.6727 261.342 94.606 261.223 94.4873C261.105 94.3685 261.038 94.2074 261.038 94.0395V63.4325C261.038 63.2645 261.105 63.1034 261.223 62.9847C261.342 62.8659 261.502 62.7992 261.67 62.7992H271.586C271.754 62.7992 271.914 62.8659 272.033 62.9847C272.151 63.1034 272.218 63.2645 272.218 63.4325V94.0395C272.218 94.2074 272.151 94.3685 272.033 94.4873C271.914 94.606 271.754 94.6727 271.586 94.6727ZM262.302 93.4062H270.954V64.0657H262.302V93.4062ZM250.069 94.6727H240.153C239.985 94.6727 239.824 94.606 239.706 94.4873C239.587 94.3685 239.521 94.2074 239.521 94.0395V78.4193C239.521 78.2514 239.587 78.0903 239.706 77.9716C239.824 77.8528 239.985 77.7861 240.153 77.7861H250.069C250.236 77.7861 250.397 77.8528 250.515 77.9716C250.634 78.0903 250.7 78.2514 250.7 78.4193V94.0395C250.701 94.3895 250.418 94.6727 250.069 94.6727ZM240.784 93.4062H249.437V79.0526H240.784V93.4062Z" fill="#9fdcff"/>
</g>
<g clip-path="url(#clip4_327_11015)">
<path d="M213.026 121.01H352.454V184.825H213.026V121.01Z" fill="white"/>
<path d="M352.454 186.937H213.026C212.467 186.937 211.932 186.714 211.537 186.318C211.142 185.922 210.92 185.384 210.92 184.824V121.01C210.92 120.449 211.142 119.912 211.537 119.516C211.932 119.12 212.467 118.897 213.026 118.897H352.454C353.013 118.897 353.548 119.12 353.943 119.516C354.338 119.912 354.56 120.449 354.56 121.01V184.824C354.56 185.384 354.338 185.922 353.943 186.318C353.548 186.714 353.013 186.937 352.454 186.937ZM215.132 182.711H350.348V123.123H215.132V182.711Z" fill="#292828"/>
<path d="M229.577 164.755C229.441 164.756 229.309 164.712 229.2 164.631C229.091 164.55 229.011 164.436 228.972 164.305C228.932 164.175 228.936 164.036 228.982 163.908C229.027 163.78 229.113 163.67 229.226 163.594L251.97 148.382C252.077 148.31 252.203 148.273 252.331 148.275C252.459 148.277 252.584 148.319 252.688 148.393L269.972 160.78L295.71 138.29C295.804 138.207 295.921 138.154 296.045 138.139C296.17 138.123 296.296 138.144 296.408 138.201L312.914 146.481L333.663 131.493C333.799 131.394 333.969 131.354 334.134 131.381C334.299 131.408 334.447 131.5 334.545 131.637C334.643 131.773 334.683 131.943 334.656 132.109C334.629 132.275 334.538 132.423 334.402 132.521L313.342 147.734C313.249 147.802 313.138 147.842 313.024 147.851C312.909 147.861 312.794 147.838 312.69 147.787L296.221 139.525L270.426 162.065C270.319 162.159 270.184 162.213 270.042 162.22C269.9 162.227 269.76 162.185 269.644 162.103L252.308 149.679L229.926 164.649C229.819 164.721 229.697 164.755 229.577 164.755Z" fill="#9FDCFF"/>
</g>
<g clip-path="url(#clip5_327_11015)">
<path d="M345.296 358.218L350.607 372.189L366.258 385.182H317.208L316.649 361.292L345.296 358.218ZM226.025 85.6473L225.257 76.8457L231.825 77.4744L230.917 86.276L226.025 85.6473Z" fill="white"/>
<path d="M290.998 307.6C300.559 302.246 305.699 293.247 302.479 287.5C299.259 281.752 288.898 281.434 279.337 286.787C269.776 292.141 264.636 301.141 267.856 306.888C271.076 312.635 281.437 312.954 290.998 307.6Z" fill="#292828"/>
<path d="M208.533 227.468L267.056 183.075C275.367 176.771 284.519 171.658 294.245 167.886L303.174 164.424C304.743 163.815 306.424 163.552 308.104 163.651C309.783 163.75 311.422 164.209 312.908 164.997L318.499 167.963C320.725 169.144 322.51 171.01 323.592 173.285C324.674 175.559 324.993 178.122 324.504 180.593L321.316 196.677L256.355 263.099L208.533 227.468Z" fill="#292828"/>
<path d="M136.799 122.67L103.958 129.59L98.2986 150.964L137.914 155.365L136.799 122.67Z" fill="white"/>
<path d="M173.528 250.417L174.402 275.377L221.64 282.83L296.312 274.047L329.939 244.954L328.54 236.886C328.126 234.498 327.003 232.29 325.318 230.548C323.633 228.806 321.463 227.611 319.09 227.118L237.952 210.256L236.543 208.706L212.855 205.04L167.047 239.544L173.528 250.417Z" fill="#292828"/>
<path d="M129.51 134.263C127.892 133.663 102.41 147.166 92.8365 152.292C90.5216 153.531 88.7564 155.593 87.8904 158.071C84.8074 166.89 77.5798 187.706 78.5709 186.22C79.8261 184.338 200.305 156.108 200.305 156.108L204.07 134.151L187.945 125.31C185.795 124.132 183.3 123.744 180.894 124.214L129.51 134.263Z" fill="#9fdcff"/>
<path d="M146.704 79.4624C146.064 80.1317 145.086 79.8957 144.284 79.7004C143.369 79.4774 142.501 79.2729 141.559 79.2038C139.593 79.0592 137.361 78.8219 135.489 79.5898C133.885 80.2474 132.431 81.356 131.028 82.3552C129.513 83.4344 128.307 84.7345 127.244 86.2627C126.139 87.8528 125.25 89.5339 125.045 91.482C124.839 93.4406 124.873 95.6691 125.852 97.4281C126.744 99.0321 128.183 100.287 128.648 102.119C129.017 103.569 128.584 105.2 129.336 106.556C130.256 108.216 132.348 108.303 133.986 107.945C135.016 107.72 136.017 107.375 137.045 107.141C138.026 106.918 139.013 106.975 140.004 106.835C141.086 106.682 142.144 106.4 143.225 106.244C144.111 106.117 144.945 106.12 145.731 106.59C147.212 107.476 148.123 109.174 148.963 110.622C149.408 111.39 149.83 112.18 150.139 113.015C150.432 113.808 150.715 114.745 150.5 115.591C150.081 117.236 147.9 117.27 146.547 117.229C144.858 117.178 143.21 116.962 141.516 117.042C139.465 117.137 137.421 117.348 135.367 117.368C133.476 117.387 131.465 117.298 129.706 116.531C128.05 115.808 126.668 114.42 125.937 112.774C125.251 111.23 125.126 109.529 124.598 107.94C124.37 107.256 124.11 106.583 123.909 105.891C123.737 105.298 123.542 104.62 123.641 103.995C123.732 103.419 124.131 103.233 124.674 103.148C125.471 103.025 125.133 101.813 124.34 101.936C120.664 102.506 123.208 107.234 123.663 109.3C124.059 111.097 124.428 112.972 125.467 114.529C126.562 116.172 128.235 117.423 130.114 118.016C134.067 119.263 138.378 118.354 142.423 118.267C144.159 118.23 145.882 118.573 147.619 118.479C149.303 118.388 151.187 117.795 151.696 115.984C152.208 114.162 151.226 112.129 150.374 110.566C149.529 109.017 148.592 107.353 147.258 106.172C146.544 105.539 145.713 105.06 144.755 104.943C143.739 104.819 142.69 105.05 141.697 105.249C140.624 105.464 139.582 105.669 138.485 105.685C137.409 105.701 136.352 106.005 135.323 106.293C133.944 106.68 131.281 107.638 130.397 105.878C130.091 105.27 130.114 104.532 130.093 103.871C130.065 102.961 129.994 102.065 129.681 101.202C129.027 99.4035 127.563 98.1402 126.753 96.4394C126.328 95.5479 126.272 94.5664 126.239 93.5944C126.202 92.4657 126.22 91.2863 126.556 90.1991C127.122 88.3675 128.393 86.6239 129.655 85.2102C130.844 83.8783 132.37 82.9009 133.861 81.9385C134.538 81.5018 135.241 81.0286 135.994 80.7327C136.99 80.3417 138.123 80.3253 139.178 80.3392C140.19 80.3526 141.231 80.3878 142.236 80.5131C143.206 80.6342 144.125 81.0173 145.1 81.128C146.027 81.2332 146.929 81.045 147.592 80.3517C148.153 79.7662 147.264 78.876 146.704 79.4624Z" fill="#292828"/>
<path d="M150.271 87.6182C150.473 86.8253 150.734 86.0483 151.05 85.2933C151.18 84.9806 150.906 84.5996 150.61 84.52C149.39 84.191 148.172 84.3343 146.931 84.4236C145.708 84.5112 144.641 84.3662 143.502 83.914C142.552 83.5367 141.636 83.1021 140.61 82.9776C139.672 82.864 138.657 83.0283 137.761 83.3205C136.353 83.7794 135.18 84.7111 134.561 86.0729C133.965 87.3839 133.841 88.8504 133.828 90.2742C133.813 91.9255 133.8 93.6636 134.012 95.3012C134.218 96.8972 134.791 98.6072 136.09 99.6487C139.118 102.077 142.692 98.8159 144.157 96.1838C145.064 94.553 145.83 92.6317 147.728 91.9414C148.817 91.5454 150.038 91.5923 151.176 91.6531C152.349 91.7155 153.52 91.8576 154.696 91.8526C155.505 91.8492 155.506 90.5919 154.696 90.5952C152.754 90.6036 150.812 90.2075 148.872 90.4225C147.084 90.6204 145.639 91.4578 144.583 92.9134C143.651 94.1989 143.149 95.7605 142.131 96.9873C141.199 98.1105 139.706 99.4203 138.121 99.2208C136.813 99.0561 135.991 97.8423 135.602 96.6859C135.079 95.1322 135.159 93.4562 135.109 91.8379C135.035 89.4749 134.871 86.2493 137.257 84.8993C138.008 84.4743 138.918 84.2526 139.776 84.204C140.877 84.1415 141.874 84.595 142.868 85.0045C144.003 85.4718 145.118 85.7547 146.355 85.7133C147.664 85.6697 148.986 85.3847 150.277 85.733L149.837 84.9597C149.521 85.7147 149.261 86.4917 149.058 87.2846C148.857 88.0683 150.07 88.4028 150.271 87.6182Z" fill="#292828"/>
<path d="M143.532 71.6748C137.566 68.0335 130.699 69.443 125.183 69.6584C117.099 69.974 108.174 71.8752 104.752 80.3666C102.795 85.2222 101.017 90.403 100.569 95.7083C100.104 101.208 102.779 106.315 105.596 110.716C108.18 114.751 112.542 118.227 116.741 120.318C118.985 121.435 123.136 122.316 124.849 120.342C126.393 118.564 127.447 115.307 128.228 113.098C130.295 107.248 132.752 101.86 135.779 96.4489C138.917 90.8385 141.377 85.174 142.617 78.7819C143.019 76.7072 143.394 77.294 143.532 71.6748Z" fill="#292828"/>
<path d="M118.137 114.452L124.641 139.853L156.356 150.92L157.408 139.405L149.124 107.271L118.137 114.452Z" fill="white"/>
<path d="M141.655 70.5737C150.158 68.7924 153.97 71.0515 155.949 79.7081C157.42 86.1446 159.041 92.6725 160.127 99.1517C155.759 100.357 151.125 101.368 146.656 102.116C143.908 92.1867 142.294 81.8498 139.83 71.8131C140.142 72.3969 141.236 70.0578 141.655 70.5737Z" fill="#292828"/>
<path d="M164.249 101.707L156.551 92.3643L155.848 89.0759L144.741 73.5528L139.462 72.0062L130.212 70.5078C130.153 70.5456 130.092 70.5805 130.03 70.6122C127.608 71.8369 124.926 72.4182 122.516 73.6433C122.536 74.2058 122.315 74.7837 121.747 75.1932C116.644 78.8643 113.741 85.6747 111.638 91.389C110.381 94.8053 109.413 98.4609 109.79 102.13C110.104 105.183 110.969 108.144 111.48 111.169C113.377 111.774 115.431 111.663 117.252 110.857L127.692 106.228L135.399 117.312L140.394 125.217L159.507 124.806C163.312 124.665 165.48 120.394 163.345 117.236L162.851 116.052L162.092 114.835L163.002 113.446L162.998 113.252C162.84 112.363 162.028 111.773 161.016 111.316L161.267 110.965L162.309 109.593L160.622 105.651L164.062 103.325C164.191 103.239 164.299 103.125 164.379 102.993C164.459 102.861 164.51 102.713 164.528 102.559C164.546 102.405 164.53 102.25 164.482 102.103C164.434 101.955 164.354 101.821 164.249 101.707Z" fill="white"/>
<path d="M158.712 105.527C158.246 105.404 157.932 105.203 157.953 105.01C157.981 104.753 158.597 104.609 159.328 104.689C159.703 104.73 160.035 104.822 160.266 104.937L158.712 105.527ZM159.067 114.89C159.175 115.372 160.763 115.87 161.154 115.722C161.916 115.432 162.693 113.926 162.707 113.921L162.45 113.919C162.087 113.99 161.374 114.182 161.25 114.199C160.586 114.291 159.918 114.432 159.284 114.652C159.125 114.706 159.033 114.736 159.033 114.736L159.067 114.89ZM154.961 112.194L155.209 112.349C155.661 112.629 157.377 112.64 157.878 112.697C158.032 112.714 160.671 111.546 160.811 111.439C161.912 110.601 161.959 110.403 162.401 109.648L162.173 109.201C161.955 109.41 161.693 109.567 161.406 109.663C161.12 109.758 160.816 109.788 160.516 109.752L158.975 109.476C158.776 109.533 158.588 109.621 158.416 109.737L154.961 112.194Z" fill="#292828"/>
<path d="M144.206 73.8057C145.152 73.3468 146.046 74.4973 146.918 74.8594C148.351 75.4542 149.612 75.6516 150.845 76.5648C152.664 77.9119 154.148 79.2464 154.955 81.5399C155.526 83.1635 156.838 85.9419 157.208 87.6247C157.726 89.9806 155.808 90.3381 155.082 92.3902C153.612 91.3964 152.51 89.7807 151.07 88.564C149.59 87.3133 148.007 85.9725 146.833 84.3819C145.932 83.1631 140.483 74.6943 143.263 74.315" fill="white"/>
<path d="M151.047 76.5361C141.195 72.7154 144.032 83.2186 143.52 86.7904C142.836 91.5592 140.37 96.1553 137.185 98.5435C134.119 100.842 132.678 104.512 133.426 108.196C130.449 106.914 128.399 99.9254 126.805 96.9793C124.505 92.7298 124.443 88.5746 125.805 83.8385C127.396 78.3082 129.548 75.9401 134.912 74.2758C139.117 72.971 141.336 71.665 145.668 73.2959C145.317 73.3847 147.896 74.7184 151.047 76.5361Z" fill="white"/>
<path d="M150.753 74.5076C148.692 73.3017 146.563 72.0263 144.401 70.8658C144.296 70.9073 144.183 70.9417 144.059 70.966C142.168 71.3335 140.32 71.2405 138.447 70.7866C136.691 70.3607 134.883 69.626 133.073 69.4877C129.968 69.2509 126.974 70.2036 124.261 71.6726C118.334 74.8818 113.477 79.6875 110.341 85.6668C107.066 91.9092 106.204 98.8855 107.961 105.732C109.35 111.143 107.63 112.129 110.988 116.544C113.43 118.348 117.52 121.648 120.504 121.947C123.055 116.698 131.307 109.366 130.329 103.534C128.991 95.5569 128.73 96.4114 133.282 91.4301C138.437 85.7892 133.429 84.974 134.786 79.5387C135.844 75.2964 146.123 74.3797 150.753 74.5076Z" fill="#292828"/>
<path d="M161.045 97.8369L156.407 92.1909C156.238 91.9859 155.906 92.1205 155.928 92.3849L156.144 94.9827L157.618 97.9807L161.045 97.8369Z" fill="white"/>
<path d="M153.892 126.454C154.09 126.605 154.365 129.293 154.289 129.819C153.723 133.688 143.966 134.348 140.512 132.145C137.326 130.113 135.131 126.703 134.336 123.283C133.724 120.652 133.118 117.609 131.757 113.291C136.961 117.174 142.433 120.762 148.475 123.186C149.493 123.594 150.514 124.003 151.496 124.492C151.968 124.726 153.661 126.279 153.892 126.454Z" fill="white"/>
<path d="M161.222 105.519L155.843 106.767C153.314 107.358 151.016 108.682 149.237 110.574C145.576 114.469 139.247 113.962 136.254 109.534L129.002 98.8086L123.971 102.209L138.894 124.28C139.853 125.698 141.163 126.843 142.697 127.604C144.231 128.365 145.936 128.715 147.645 128.62L158.885 127.998C163.005 127.77 165.925 123.887 165.002 119.868L164.913 119.481C164.816 119.056 164.64 118.654 164.396 118.293L162.746 115.852C160.295 117.509 156.97 116.916 155.243 114.513L155.16 114.362C154.195 112.617 155.06 110.425 156.958 109.809L160.882 108.534C161.08 108.47 161.262 108.363 161.415 108.222C161.568 108.081 161.689 107.908 161.769 107.716C161.849 107.524 161.886 107.316 161.878 107.108C161.87 106.9 161.818 106.696 161.724 106.51L161.222 105.519Z" fill="#292828"/>
<path d="M122.063 110.596C122.068 110.603 122.069 110.609 122.074 110.616C123.543 113.55 127.018 114.875 130.071 113.659L132.016 114.36L129.572 108.313L126.541 104.12L122.063 110.596Z" fill="white"/>
<path d="M120.142 106.725L121.161 108.781L122.063 110.596C122.068 110.602 122.069 110.609 122.074 110.615C122.156 110.593 122.245 110.57 122.338 110.55C123.403 110.304 124.601 110.29 125.699 109.983C126.664 109.709 128.34 109.142 129.572 108.311L127.682 103.564L126.471 100.525L122.886 101.206C120.369 101.685 119.003 104.432 120.142 106.725Z" fill="white"/>
<path d="M113.816 72.7778C112.895 75.0943 104.617 73.0959 102.712 72.6827C98.128 71.6885 94.5721 72.1579 92.4491 75.7934C91.1952 77.9402 90.542 80.4574 90.0561 82.7706C89.5463 85.199 87.89 90.4108 91.6085 91.7914C95.5074 93.239 98.1741 87.7955 99.187 85.6546C100.385 83.121 101.137 80.7194 103.591 78.6774C104.447 77.9653 105.755 76.8869 107.087 76.7469C108.327 76.6166 108.737 77.1279 109.947 77.464C113.557 78.467 113.941 76.0147 113.99 73.6764C113.785 73.5343 113.969 73.7426 113.984 73.826M145 99.0423C145.569 97.3414 150.668 92.6665 151.693 94.9906C151.854 95.3556 151.724 95.8246 151.724 95.8246C151.724 95.8246 149.102 96.3745 148.173 96.7953C146.518 97.5451 146.58 97.7819 145.187 98.9102C145.269 98.8168 144.977 99.0624 145 99.0423Z" fill="#292828"/>
<path d="M148.173 96.5762C147.764 97.9291 150.251 99.1341 151.001 97.6416C151.884 95.8846 149.846 95.043 148.679 96.2677C148.468 96.3142 147.946 96.8867 148.173 96.5762ZM152.814 91.6431C152.644 90.9301 152.617 90.4511 152.256 89.9955C151.662 89.2486 151.055 89.563 150.229 89.9989C148.595 90.8618 147.3 91.5794 145.53 92.084C143.93 92.5396 142.275 92.672 141.538 94.227C141.022 95.3154 139.824 98.1169 140.381 99.2653C141.355 98.7422 141.961 97.0988 142.681 96.2233C143.563 95.152 144.755 94.9416 146 94.3179C148.387 93.1213 150.398 91.8719 153.004 92.4503C152.9 92.1351 152.919 92.0873 152.814 91.6431Z" fill="#292828"/>
<path d="M96.5534 174.642L121.241 225.115L146.773 260.733C152.146 268.229 160.128 273.446 169.152 275.359L172.014 275.966C174.089 276.406 176.109 275.015 176.438 272.92L179.074 256.123C180.644 246.122 185.086 236.793 191.86 229.268L193.292 227.676C200.314 219.876 209.522 214.37 219.718 211.876L233.897 208.274L231.73 203.903C231.264 202.971 230.57 202.171 229.712 201.578C228.855 200.985 227.862 200.618 226.825 200.51L219.773 199.775C218.609 199.654 217.503 199.206 216.583 198.483C215.663 197.761 214.966 196.793 214.573 195.691L213.878 193.748C213.53 192.772 212.943 191.9 212.17 191.209C211.398 190.519 210.465 190.033 209.456 189.796L205.561 188.88C204.495 188.629 203.515 188.101 202.72 187.35C201.924 186.598 201.342 185.649 201.032 184.6L189.638 146.07L96.5534 174.642Z" fill="#9fdcff"/>
<path d="M315.137 375.685L364.081 362.692L336.472 280.949L329.125 237.403C328.705 234.917 327.518 232.624 325.73 230.846C323.942 229.068 321.642 227.893 319.153 227.487L296.939 223.861L287.527 267.147L296.312 274.048L298.822 306.669L315.137 375.685Z" fill="#292828"/>
<path d="M346.955 387.96C350.905 387.96 354.106 384.759 354.106 380.811C354.106 376.862 350.905 373.662 346.955 373.662C343.006 373.662 339.805 376.862 339.805 380.811C339.805 384.759 343.006 387.96 346.955 387.96Z" fill="#9fdcff"/>
<path d="M394.04 394.801C394.04 395.014 393.963 395.221 393.822 395.381C393.681 395.541 393.486 395.645 393.275 395.672C392.076 395.825 389.799 396.1 388.861 396.097C371.11 396.053 321.391 396.09 314.176 396.097C313.943 396.097 313.72 396.005 313.555 395.841C313.391 395.676 313.298 395.453 313.298 395.221V391.039H394.04V394.801Z" fill="#F4ECEA"/>
<path d="M316.277 375.955L315.184 379.582C313.913 383.799 313.239 388.174 313.181 392.578C313.123 396.983 386.339 392.622 387.878 392.578C389.962 392.575 392.036 392.278 394.039 391.699V389.688C394.039 388.364 393.562 387.083 392.696 386.082C391.83 385.08 390.632 384.424 389.321 384.233C386.021 383.756 381.875 383.1 379.961 382.57C374.429 381.039 363.614 376.93 358.62 374.102C355.881 372.551 348.619 366.456 348.619 366.456C348.281 366.198 347.861 366.071 347.437 366.099C347.013 366.127 346.613 366.308 346.313 366.609L346.001 366.92C344.603 368.318 343.526 370.002 342.845 371.857L342.359 373.17C342.226 373.532 342.216 373.928 342.331 374.296C342.445 374.664 342.678 374.985 342.992 375.208L351.382 381.155C351.533 381.261 351.641 381.418 351.685 381.597C351.729 381.776 351.707 381.966 351.622 382.13C351.538 382.294 351.396 382.422 351.224 382.489C351.053 382.557 350.862 382.561 350.688 382.499C346.986 381.203 342.281 379.586 340.026 378.943C336.524 377.943 329.422 376.273 325.835 375.643C323.933 375.309 318.169 374.72 318.169 374.72C317.759 374.67 317.344 374.766 316.998 374.992C316.651 375.218 316.396 375.559 316.277 375.955Z" fill="#292828"/>
<path d="M87.6087 161.022L75.0326 193.713L65.6003 221.374L66.858 241.491L80.0772 244.335L88.8576 235.716C93.3946 231.263 96.677 225.692 98.3741 219.566L110.93 174.235L87.6087 161.022ZM184.446 157.879L206.308 165.342C208.911 166.23 211.615 166.788 214.358 167.003L239.412 168.959C245.591 169.442 251.051 164.964 251.783 158.81L253.615 143.42L239.782 144.049L218.822 135.318C217.705 134.853 216.554 134.474 215.379 134.186L183.817 126.447L184.446 157.879Z" fill="#9fdcff"/>
<path d="M141.042 139.288L122.013 133.084L120.936 132.732L103.329 146.563L125.966 144.677L156.359 150.963L155.369 149.623C151.787 144.771 146.778 141.157 141.042 139.288ZM269.124 286.581H142.314C141.584 286.581 140.871 286.357 140.272 285.938C139.674 285.519 139.218 284.927 138.967 284.241L95.3992 165.031C95.2386 164.592 95.1661 164.125 95.186 163.658C95.2058 163.19 95.3175 162.731 95.5148 162.307C95.712 161.883 95.991 161.502 96.3356 161.185C96.6802 160.869 97.0838 160.623 97.5234 160.463C97.9629 160.302 98.4298 160.23 98.8974 160.249C99.3649 160.269 99.824 160.381 100.248 160.578C100.673 160.775 101.054 161.054 101.371 161.399C101.687 161.743 101.933 162.147 102.093 162.586L144.807 279.456H269.124C270.069 279.456 270.975 279.831 271.644 280.499C272.312 281.168 272.687 282.074 272.687 283.019C272.687 283.963 272.312 284.87 271.643 285.538C270.975 286.206 270.069 286.581 269.124 286.581Z" fill="#292828"/>
<path d="M108.104 388.953C107.719 388.953 107.336 388.89 106.97 388.767C106.527 388.618 106.117 388.384 105.764 388.076C105.411 387.769 105.122 387.395 104.914 386.977C104.705 386.558 104.581 386.102 104.549 385.635C104.517 385.168 104.577 384.7 104.726 384.256L139.288 281.289C139.594 280.4 140.239 279.668 141.082 279.252C141.926 278.837 142.899 278.772 143.791 279.071C144.682 279.37 145.419 280.009 145.841 280.849C146.263 281.689 146.336 282.662 146.044 283.556L111.482 386.523C111.245 387.231 110.791 387.846 110.185 388.282C109.579 388.718 108.851 388.953 108.104 388.953ZM156.359 150.964L160.994 137.712V126.319L153.891 126.454L156.067 138.636L156.359 150.964ZM161.611 178.061C161.487 178.061 161.366 178.025 161.263 177.956C161.16 177.888 161.079 177.791 161.031 177.677L158.77 172.32C158.29 171.183 157.997 169.976 157.902 168.745L157.352 161.611C157.214 159.843 156.62 158.14 155.625 156.672L149.694 147.918C149.601 147.78 149.566 147.61 149.597 147.446C149.629 147.283 149.724 147.138 149.862 147.044C150 146.951 150.17 146.916 150.334 146.948C150.497 146.979 150.642 147.074 150.735 147.212L156.667 155.966C157.784 157.616 158.452 159.528 158.606 161.514L159.156 168.648C159.24 169.744 159.501 170.819 159.928 171.831L162.189 177.188C162.23 177.284 162.246 177.388 162.236 177.491C162.226 177.594 162.191 177.693 162.134 177.78C162.077 177.866 161.999 177.937 161.908 177.986C161.816 178.035 161.714 178.061 161.611 178.061Z" fill="#292828"/>
<path d="M168.694 182.063L168.672 182.063C168.505 182.057 168.348 181.985 168.234 181.863C168.12 181.741 168.06 181.579 168.066 181.412L168.588 166.541C168.644 164.883 168.3 163.235 167.584 161.738L157.963 141.678C157.893 141.528 157.885 141.357 157.941 141.201C157.996 141.044 158.112 140.917 158.261 140.845C158.411 140.773 158.582 140.764 158.739 140.818C158.896 140.872 159.024 140.986 159.097 141.135L168.718 161.195C169.521 162.875 169.908 164.724 169.844 166.586L169.322 181.457C169.317 181.62 169.248 181.774 169.131 181.887C169.014 182 168.857 182.063 168.694 182.063Z" fill="#292828"/>
<path d="M248.381 79.6948L254.15 90.2836C254.837 91.545 255.136 92.9812 255.009 94.412L254.613 98.8958C254.521 99.9379 254.239 100.955 253.783 101.896L252.575 104.385L252.855 137.509L231.064 136.246L236.936 101L232.779 83.3517L248.381 79.6948Z" fill="white"/>
<path d="M231.659 78.8396C232.507 77.9292 233.849 76.3735 235.351 76.4359C237.899 76.5419 240.909 78.9427 242.766 79.9037C245.231 81.18 248.871 80.3753 250.17 82.7408C251.865 85.8256 254.158 89.3525 254.777 92.1975C255.079 93.5836 253.107 96.5292 252.375 97.8171C251.534 99.2971 250.365 99.1504 248.856 99.393C246.718 99.7367 245.932 99.4077 244.53 97.6713C242.409 95.0442 240.79 93.2462 238.423 90.8031C235.68 87.9711 231.995 82.6763 231.659 78.8396Z" fill="white"/>
<path d="M220.455 90.5233L205.344 74.4009L254.431 50.7505L220.455 90.5233Z" fill="white"/>
<path d="M230.917 67.139L231.348 67.4555C232.167 68.0555 232.748 68.9246 232.99 69.9103L234.167 74.7042L235.06 80.7832L238.862 83.4903C240.651 84.7636 242.183 86.3627 243.379 88.2038L243.748 88.7726C245.496 91.4632 246.468 94.5832 246.558 97.79L246.279 102.754L237.603 103.29L236.497 100.01L227.653 91.1696C226.69 90.2073 226.129 88.9143 226.086 87.5538L225.975 84.0557L229.098 80.2514L228.319 74.7939C228.319 74.7939 228.032 71.8886 227.997 71.2825C227.972 70.8554 227.579 68.6923 227.349 67.4525C227.328 67.3386 227.33 67.2215 227.355 67.1084C227.38 66.9952 227.428 66.8882 227.495 66.7938C227.562 66.6994 227.648 66.6194 227.746 66.5587C227.845 66.498 227.955 66.4577 228.07 66.4403C229.074 66.2872 230.098 66.5385 230.917 67.139Z" fill="white"/>
<path d="M241.961 77.8413C242.051 79.8124 244.042 81.5958 243.185 84.5464C242.341 87.456 238.779 83.1889 238.3 81.6411C238.013 80.7127 237.224 78.0366 236.697 77.2947C236.173 76.5558 234.237 76.871 233.419 76.4557C233.988 73.6735 235.12 70.4714 238.651 72.0645C240.969 73.5142 241.836 75.0893 241.961 77.8413Z" fill="white"/>
<path d="M239.233 72.8321C240.185 72.2483 241.902 73.5476 242.801 74.0241C244.356 74.8481 245.269 75.1138 245.555 76.8691C246.006 79.6854 246.674 82.4627 247.553 85.1762C248.039 86.685 248.09 87.8318 246.022 87.5807C244.667 87.4164 243.398 86.0542 242.819 84.8547C241.645 82.4217 242.212 79.8311 240.437 77.7866C239.848 77.1072 238.041 76.23 237.846 75.3544C237.644 74.4453 238.59 73.2257 239.233 72.8321Z" fill="white"/>
<path d="M244.711 76.4187C247.95 75.5213 249.27 76.987 249.834 80.1962C250.09 81.6477 250.387 83.1167 250.75 84.561C251.006 85.5803 252.213 88.0703 250.961 88.0276C248.907 87.9576 247.117 86.1914 246.605 83.9197C245.954 81.0311 243.466 77.7075 244.711 76.4187Z" fill="white"/>
<path d="M222.322 144.465C223.058 142.937 224.615 140.906 226.111 139.029C226.54 138.491 226.964 138.351 227.362 137.765C227.681 137.296 227.577 135.593 227.884 135.183C228.559 134.28 229.191 135.038 229.715 134.109C231.039 131.766 230.42 129.36 232.092 126.969C241.253 130.68 249.375 131.424 258.482 132.713C256.324 141.553 253.987 152.647 251.128 161.097C244.999 159.123 218.715 151.957 222.322 144.465Z" fill="#9fdcff"/>
<path d="M246.292 95.3345L246.336 95.7301C246.449 96.7451 246.944 97.679 247.721 98.3421C248.498 99.0052 249.498 99.3476 250.518 99.2998L251.662 99.2462L247.98 103.771L242.226 99.7064L246.292 95.3345Z" fill="white"/>
<path d="M234.154 68.1865L233.701 72.7244L234.128 74.5379L237.905 70.143L234.154 68.1865Z" fill="white"/>
<path d="M273.601 315.894C273.601 315.894 269.08 311.877 269.834 311.626C270.587 311.374 271.592 293.044 271.592 293.044L287.415 280.239L300.224 277.728L327.55 261.819L323.079 280.49L279.88 315.141L273.601 315.894Z" fill="#292828"/>
<path d="M324.043 177.368L315.868 236.461L316.497 273.552L283.525 288.439C279.548 290.235 275.93 292.735 272.844 295.819L266.821 301.841L275.624 220.745L297.004 178.625L324.043 177.368Z" fill="#292828"/>
<path d="M330.039 267.843C330.887 269.829 331.232 271.995 331.042 274.147C330.853 276.299 330.134 278.37 328.952 280.178L323.738 288.146C320.283 293.426 315.342 297.565 309.538 300.042L293.419 306.921C293.151 307.036 292.889 307.163 292.634 307.302L275.716 316.542C274.458 317.229 273.054 317.607 271.621 317.646C270.188 317.684 268.767 317.382 267.473 316.764C266.18 316.145 265.052 315.229 264.183 314.09C263.313 312.95 262.727 311.621 262.472 310.21L262.358 309.58C261.289 303.666 264.254 297.756 269.635 295.076L281.151 289.34C282.193 288.821 283.125 288.106 283.896 287.233L296.122 273.406C301.237 267.621 308.297 263.911 315.964 262.98L320.625 262.414C322.57 262.177 324.54 262.579 326.238 263.558C327.936 264.537 329.269 266.041 330.039 267.843Z" fill="#292828"/>
<path d="M332.012 268.586C332.861 270.573 333.205 272.739 333.016 274.891C332.826 277.042 332.108 279.114 330.925 280.922L325.711 288.89C322.256 294.17 317.315 298.309 311.511 300.786L295.393 307.665C295.125 307.78 294.863 307.907 294.607 308.046L277.689 317.285C276.431 317.972 275.028 318.351 273.595 318.389C272.162 318.428 270.74 318.126 269.447 317.507C268.154 316.889 267.026 315.973 266.156 314.833C265.287 313.694 264.7 312.364 264.445 310.954L264.331 310.324C263.262 304.409 266.228 298.5 271.608 295.819L283.125 290.083C284.167 289.564 285.099 288.849 285.869 287.977L298.095 274.15C303.211 268.364 310.27 264.655 317.937 263.724L322.598 263.157C324.544 262.921 326.514 263.322 328.211 264.301C329.909 265.281 331.243 266.784 332.012 268.586Z" fill="#F4ECEA"/>
<path d="M114.787 174.416C112.472 174.467 108.865 172.581 106.477 173.845C101.836 176.301 107.014 178.344 110.355 179.235C110.63 179.308 110.916 179.325 111.198 179.286C111.479 179.247 111.75 179.152 111.994 179.007C112.239 178.863 112.452 178.671 112.621 178.442C112.79 178.214 112.912 177.955 112.98 177.679C113.263 176.532 113.204 175.752 114.787 174.416Z" fill="white"/>
<path d="M112.484 163.47C113.695 164.199 128.618 166.922 126.474 171.559C124.939 174.88 113.056 169.916 110.525 170.223C110.983 168.547 110.454 163.852 112.484 163.47Z" fill="#292828"/>
<path d="M169.588 178.944C170.026 178.556 169.985 177.797 169.498 177.248C169.01 176.699 168.261 176.569 167.824 176.957C167.387 177.345 167.427 178.104 167.915 178.653C168.402 179.202 169.151 179.332 169.588 178.944Z" fill="#292828"/>
<path d="M161.677 175.561C161.971 174.889 161.777 174.154 161.241 173.919C160.706 173.684 160.033 174.038 159.738 174.71C159.443 175.382 159.638 176.117 160.173 176.352C160.709 176.587 161.382 176.233 161.677 175.561Z" fill="#292828"/>
<path d="M103.958 129.59L120.936 132.733L124.257 136.058L106.455 146.37L98.738 149.044L103.958 129.59ZM117.096 171.429C114.662 170.284 110.09 170.485 107.733 171.358C104.287 172.634 100.679 173.793 97.1403 174.614C98.3317 169.649 103.373 166.806 106.901 163.731C109.501 161.466 109.853 161.994 112.484 163.745C114.418 165.032 116.431 165.705 118.534 166.589C117.876 167.845 116.87 171.899 117.096 171.429Z" fill="#292828"/>
<path d="M69.6949 193.921C70.8189 192.245 73.3079 190.645 75.2334 187.816C75.4749 187.461 74.8821 186.262 75.1315 185.896C81.853 176.034 91.3528 162.252 93.957 158.864C99.2318 152.001 103.241 150.979 108.405 152.898C112.663 154.481 115.357 154.487 116.616 155.877C118.946 158.452 119.419 158.606 121.858 162.417C122.13 162.839 122.314 163.312 122.4 163.807C122.486 164.302 122.473 164.809 122.361 165.298C121.645 168.393 120.571 171.961 119.995 173.812C119.733 174.656 119.182 175.381 118.438 175.858C117.008 176.778 114.37 178.323 111.186 179.485C110.258 179.823 109.157 178.646 108.075 178.414C109.456 174.658 108.99 173.623 109.83 169.739C108.908 169.336 105.679 168.647 104.75 168.627C98.5443 179.758 97.4333 195.145 92.9404 207.25C85.5242 203.759 75.3822 196.017 69.6949 193.921Z" fill="white"/>
<path d="M75.1324 185.834C79.2153 193.539 94.988 198.305 100.662 199.031C97.9729 210.648 89.9119 254.387 67.2072 244.07C40.301 231.844 69.2711 192.519 75.1324 185.834Z" fill="#9fdcff"/>
<path d="M203.284 71.966L190 81.4165L204.702 75.3798C204.702 75.3798 254.219 51.0215 254.665 50.843C255.11 50.6648 254.736 49.4703 254.86 49.0068C254.985 48.5432 203.284 71.966 203.284 71.966Z" fill="white"/>
</g>
<g clip-path="url(#clip6_327_11015)">
<path d="M121.825 323.032H87.8779L84.2998 321.765H78.0776C73.5485 321.765 69.7599 325.216 69.3246 329.739L62.9357 394.83H83.87L85.8455 396.097H152.112C153.918 396.097 155.299 394.482 155.025 392.692L150.078 368.643L140.614 335.466C137.972 327.297 130.385 323.032 121.825 323.032Z" fill="#292828"/>
<path d="M57.2048 396.097H86.0434C86.3235 396.097 86.6009 396.041 86.8592 395.932C87.1174 395.823 87.3514 395.663 87.5474 395.462C87.7434 395.261 87.8975 395.023 88.0006 394.762C88.1036 394.501 88.1537 394.221 88.1478 393.94L87.7196 373.727L83.6713 327.226L80.9169 333.44C80.4515 334.491 79.6924 335.383 78.7318 336.009C77.7712 336.635 76.6503 336.969 75.5047 336.969C72.2688 336.969 69.6315 334.363 69.5818 331.117L69.7131 327.82L57.4106 371.928C56.7907 374.186 56.3913 376.499 56.218 378.834L55.1059 393.828C55.0844 394.118 55.1227 394.409 55.2184 394.683C55.3142 394.957 55.4653 395.209 55.6623 395.422C55.8593 395.635 56.098 395.804 56.3634 395.921C56.6288 396.037 56.9152 396.097 57.2048 396.097Z" fill="#9FDCFF"/>
<path d="M127.574 378.825C127.424 380.192 127.254 381.752 127.258 383.402C127.264 386.083 129.459 388.242 132.132 388.242H134.68C136.093 388.242 137.17 386.887 136.764 385.529C136.374 384.221 136.489 382.49 136.78 379.84C136.984 377.979 137.194 376.055 137.03 374.078C136.467 367.296 133.909 363.85 133.402 363.229L126.234 369.112C126.234 369.112 126.202 369.078 126.151 369.005C126.205 369.081 127.472 370.885 127.801 374.849C127.891 375.933 127.737 377.338 127.574 378.825Z" fill="#292828"/>
<path d="M78.9321 321.765C87.8232 321.517 95.7267 327.41 98.0546 336.022L104.527 359.967C106.316 366.584 112.302 371.179 119.137 371.179H147.49C151.764 371.179 154.697 366.861 153.133 362.87L141.826 334.017C140.41 330.405 137.944 327.304 134.747 325.119C131.55 322.934 127.771 321.765 123.902 321.765H78.9321Z" fill="#9FDCFF"/>
<path d="M130.1 374.602C129.95 375.968 129.78 377.529 129.784 379.179C129.79 381.86 131.985 384.019 134.657 384.019H137.206C138.619 384.019 139.695 382.664 139.29 381.306C138.9 379.998 139.015 378.267 139.306 375.617C139.509 373.756 139.72 371.832 139.556 369.855C138.993 363.073 136.434 359.627 135.927 359.005L128.76 364.889C128.76 364.889 128.728 364.855 128.676 364.782C128.73 364.857 129.998 366.662 130.327 370.626C130.417 371.71 130.263 373.115 130.1 374.602Z" fill="#9FDCFF"/>
</g>
<g clip-path="url(#clip7_327_11015)">
<path d="M165.334 376.844H246.555V379.381H165.334V376.844Z" fill="#9FDCFF"/>
<path d="M246.393 396.097H163.096C162.858 396.097 162.63 396.001 162.462 395.832C162.295 395.663 162.2 395.433 162.2 395.193V378.932C162.2 378.693 162.295 378.463 162.462 378.294C162.63 378.125 162.858 378.029 163.096 378.029H245.854C246.091 378.029 246.319 378.125 246.487 378.294C246.655 378.463 246.749 378.693 246.749 378.932L247.288 380.641V395.193C247.288 395.312 247.265 395.43 247.22 395.539C247.175 395.649 247.109 395.748 247.026 395.832C246.943 395.916 246.845 395.983 246.736 396.028C246.627 396.073 246.511 396.097 246.393 396.097Z" fill="#9FDCFF"/>
<path d="M229.89 384.403C230.702 384.403 231.458 384.093 232.104 384.491C231.327 383.449 230.096 382.772 228.704 382.772C226.354 382.772 224.449 384.693 224.449 387.063C224.449 388.613 225.268 389.968 226.49 390.722C225.956 390.005 226.175 389.116 226.175 388.15C226.175 385.78 227.54 384.403 229.89 384.403Z" fill="#292828"/>
<path d="M232.958 387.063C232.958 386.135 232.658 385.232 232.104 384.491C231.438 384.078 230.671 383.859 229.89 383.859C227.54 383.859 225.635 385.78 225.635 388.15C225.635 389.117 225.956 390.005 226.49 390.722C227.156 391.135 227.922 391.354 228.704 391.354C231.053 391.354 232.958 389.433 232.958 387.063Z" fill="white"/>
<path d="M166.438 378.134L247.289 380.642V378.822C247.289 378.703 247.265 378.585 247.22 378.475C247.175 378.366 247.109 378.266 247.026 378.182C246.942 378.098 246.843 378.032 246.734 377.986C246.625 377.941 246.508 377.918 246.391 377.918L166.438 378.134Z" fill="#292828"/>
<path d="M248.664 378.044H165.367C165.129 378.044 164.902 377.949 164.734 377.78C164.566 377.61 164.471 377.381 164.471 377.141V362.7L165.01 360.88C165.01 360.641 165.105 360.411 165.272 360.242C165.44 360.072 165.668 359.977 165.906 359.977H248.664C248.902 359.977 249.129 360.072 249.297 360.242C249.465 360.411 249.559 360.641 249.56 360.88V377.141C249.56 377.26 249.536 377.377 249.491 377.487C249.447 377.597 249.381 377.696 249.297 377.78C249.214 377.864 249.115 377.93 249.007 377.976C248.898 378.021 248.782 378.044 248.664 378.044Z" fill="#9FDCFF"/>
<path d="M232.161 366.35C232.972 366.35 233.729 366.04 234.374 366.438C233.598 365.396 232.366 364.719 230.975 364.719C228.625 364.719 226.72 366.64 226.72 369.01C226.72 370.56 227.539 371.915 228.761 372.669C228.227 371.952 228.446 371.063 228.446 370.097C228.445 367.728 229.811 366.35 232.161 366.35Z" fill="#292828"/>
<path d="M235.229 369.011C235.229 368.082 234.929 367.18 234.374 366.439C233.709 366.026 232.942 365.807 232.161 365.807C229.811 365.807 227.906 367.728 227.906 370.098C227.906 371.064 228.227 371.953 228.761 372.67C229.427 373.083 230.193 373.302 230.975 373.302C233.324 373.302 235.229 371.381 235.229 369.011Z" fill="white"/>
</g>
<defs>
<clipPath id="clip0_327_11015">
<rect width="33.6" height="31.5" fill="white" transform="translate(25.28 177.697)"/>
</clipPath>
<clipPath id="clip1_327_11015">
<rect width="357" height="7.98" fill="white" transform="translate(25.28 209.197)"/>
</clipPath>
<clipPath id="clip2_327_11015">
<rect width="137.34" height="153.3" fill="white" transform="translate(64.34 30.6968)"/>
</clipPath>
<clipPath id="clip3_327_11015">
<rect width="143.64" height="80.64" fill="white" transform="translate(210.92 30.6968)"/>
</clipPath>
<clipPath id="clip4_327_11015">
<rect width="143.64" height="68.04" fill="white" transform="translate(210.92 118.897)"/>
</clipPath>
<clipPath id="clip5_327_11015">
<rect width="338.1" height="347.76" fill="white" transform="translate(55.94 48.3369)"/>
</clipPath>
<clipPath id="clip6_327_11015">
<rect width="99.96" height="74.34" fill="white" transform="translate(55.1 321.757)"/>
</clipPath>
<clipPath id="clip7_327_11015">
<rect width="87.36" height="36.12" fill="white" transform="translate(162.2 359.977)"/>
</clipPath>
</defs>
</svg>
