<svg width="40" height="47" viewBox="0 0 40 47" fill="none" xmlns="http://www.w3.org/2000/svg">
<path d="M20 0C8.94582 0 0 8.94582 0 20V30.1818C0 33.1895 2.44691 35.6364 5.45455 35.6364C8.46218 35.6364 10.9091 33.1895 10.9091 30.1818V23.6364C10.9091 20.6287 8.46218 18.1818 5.45455 18.1818C4.84391 18.1818 4.25709 18.2842 3.70845 18.4701C4.48245 10.1619 11.493 3.63636 20 3.63636C28.507 3.63636 35.5175 10.1619 36.2915 18.4701C35.7429 18.2842 35.1561 18.1818 34.5455 18.1818C31.5378 18.1818 29.0909 20.6287 29.0909 23.6364V30.1818C29.0909 33.1895 31.5378 35.6364 34.5455 35.6364C35.0959 35.6364 35.6273 35.5536 36.1285 35.4013C35.4485 37.6392 33.3663 39.2727 30.9091 39.2727H25.1418C24.3913 37.1565 22.3703 35.6364 20 35.6364C16.9924 35.6364 14.5455 38.0833 14.5455 41.0909C14.5455 44.0985 16.9924 46.5455 20 46.5455C22.3703 46.5455 24.3912 45.0253 25.1418 42.9091H30.9091C35.9218 42.9091 40 38.8309 40 33.8182V20C40 8.94582 31.0542 0 20 0ZM5.45455 21.8182C6.45709 21.8182 7.27273 22.6338 7.27273 23.6364V30.1818C7.27273 31.1844 6.45709 32 5.45455 32C4.452 32 3.63636 31.1844 3.63636 30.1818V23.6364C3.63636 22.6338 4.452 21.8182 5.45455 21.8182ZM20 42.9091C18.9975 42.9091 18.1818 42.0935 18.1818 41.0909C18.1818 40.0884 18.9975 39.2727 20 39.2727C21.0025 39.2727 21.8182 40.0884 21.8182 41.0909C21.8182 42.0935 21.0025 42.9091 20 42.9091ZM34.5455 32C33.5429 32 32.7273 31.1844 32.7273 30.1818V23.6364C32.7273 22.6338 33.5429 21.8182 34.5455 21.8182C35.548 21.8182 36.3636 22.6338 36.3636 23.6364V30.1818C36.3636 31.1844 35.548 32 34.5455 32Z" fill="#4F84E8"/>
</svg>
