<svg width="40" height="49" viewBox="0 0 40 49" fill="none" xmlns="http://www.w3.org/2000/svg">
<path d="M36.6438 3.35073C32.0232 -1.29598 24.3974 -1.06499 19.9981 3.7651C15.5985 -1.06481 7.97311 -1.29606 3.35248 3.35082C-1.24234 7.92666 -1.08581 15.4617 3.64844 19.8782C1.22639 22.1914 2.61395 26.3482 5.91063 26.7534C5.71315 29.0108 7.6345 31.0809 9.9072 31.0425C10.0465 33.5275 12.5407 35.3064 14.932 34.6497C15.7165 37.6103 19.4879 38.622 21.6515 36.443C22.8803 35.2215 23.8575 34.4512 23.9198 32.6013C25.9503 32.5447 27.707 30.7641 27.738 28.7348C29.7879 28.7032 31.5739 26.9166 31.6055 24.8673C33.7321 24.8349 35.576 22.9156 35.477 20.7488L36.6436 19.5822C41.1188 15.1072 41.1188 7.8257 36.6438 3.35073ZM5.40753 21.746L6.50331 20.6502C6.78654 20.367 7.15841 20.2254 7.53046 20.2254C8.80611 20.217 9.47198 21.7941 8.55742 22.7043L7.46164 23.8001C6.04322 25.1059 4.10153 23.165 5.40753 21.746ZM8.46296 27.0275C8.46296 26.6394 8.6141 26.2746 8.88844 26.0003L9.98482 24.904C10.2591 24.63 10.6236 24.4791 11.0113 24.4791C12.2978 24.4769 12.9499 26.0504 12.0383 26.9587L11.0715 27.9256C10.7759 28.2605 10.3699 28.4872 9.9154 28.4799C9.13481 28.496 8.4468 27.8082 8.46296 27.0275ZM12.8849 31.7931C12.3215 31.2525 12.3215 30.2797 12.8849 29.7391L13.8518 28.7721C14.4155 28.1029 15.4051 28.0158 16.0349 28.6432C16.6012 29.2095 16.6012 30.1308 16.0349 30.6973L14.939 31.7932C14.3728 32.3597 13.4513 32.3596 12.8849 31.7931ZM20.9339 33.5337L19.8381 34.6295C19.5638 34.9038 19.199 35.055 18.811 35.055C18.423 35.055 18.0582 34.9038 17.7839 34.6295C17.2205 34.0888 17.2203 33.116 17.784 32.5754L18.8797 31.4796C19.446 30.9132 20.3675 30.9132 20.9338 31.4795C21.4973 32.0202 21.4974 32.993 20.9339 33.5337ZM32.4884 21.8825C31.9477 22.446 30.9749 22.4461 30.4343 21.8825L24.7273 16.1756L22.9139 17.989L28.6208 23.696C29.1871 24.2623 29.1871 25.1837 28.6208 25.7501C28.0545 26.3166 27.1331 26.3164 26.5667 25.7501L20.8598 20.0432L19.0463 21.8566L24.7532 27.5636C25.3196 28.1299 25.3196 29.0514 24.7532 29.6177C24.1869 30.1841 23.2654 30.1841 22.6991 29.6177L22.6979 29.6189C21.6559 28.6115 20.1996 28.2798 18.8843 28.6238C18.4656 26.9128 16.7457 25.6175 15.0161 25.6552C14.9322 23.8136 13.3753 22.15 11.5354 21.9513C11.7782 18.7916 8.30806 16.6157 5.56953 18.1722C1.75556 14.7653 1.52064 8.78462 5.16611 5.1642C8.79064 1.51428 14.7794 1.75612 18.1848 5.57856L15.0144 8.74897L17.5549 11.2894C19.5063 13.241 22.5135 13.5096 24.7556 12.0952L32.4886 19.8284C33.0547 20.3947 33.0547 21.3162 32.4884 21.8825ZM34.8303 17.7687L34.4396 18.1594C34.395 18.1104 34.3491 18.0621 34.3019 18.0149L24.8563 8.56928L23.9496 9.47596C22.6866 10.739 20.6314 10.7391 19.3682 9.47596L18.6412 8.74897L22.226 5.1642C30.9339 -2.85058 42.8434 9.06647 34.8303 17.7687Z" fill="#4F84E8"/>
</svg>
