<svg width="116" height="125" viewBox="0 0 116 125" fill="none" xmlns="http://www.w3.org/2000/svg">
<path d="M57.8706 110.645C89.7476 110.645 115.589 113.643 115.589 117.342C115.589 121.04 89.7476 124.038 57.8706 124.038C25.9937 124.038 0.152344 121.04 0.152344 117.342C0.152344 113.643 25.9937 110.645 57.8706 110.645Z" fill="#070B31"/>
<path d="M20.1391 47.0418C20.1391 48.8418 21.4391 50.3418 23.0391 50.4418H23.2391C35.1391 48.1418 47.5391 47.5418 60.1391 48.9418C71.8391 50.2418 90.6391 56.2418 93.6391 57.6418C96.6391 59.0418 101.639 54.5418 102.339 48.6418C105.239 23.6418 89.3391 2.74183 66.2391 0.34183C43.2391 -2.05817 22.6391 16.3418 20.2391 41.4418C20.1391 43.4418 20.0391 45.2418 20.1391 47.0418Z" fill="url(#paint0_radial_567_319)"/>
<path d="M53.9403 31.9418C53.9403 31.7418 53.9403 31.5418 53.8403 31.3418H48.0403C47.9403 31.8418 47.9403 32.3418 48.1403 32.8418C48.3403 33.6418 48.9403 34.3418 49.7403 34.6418C51.9403 35.4418 53.9403 33.9418 53.9403 31.9418Z" fill="#262B5B"/>
<path d="M62.0406 29.9416C63.6423 29.9416 64.9406 28.6432 64.9406 27.0416C64.9406 25.44 63.6423 24.1416 62.0406 24.1416C60.439 24.1416 59.1406 25.44 59.1406 27.0416C59.1406 28.6432 60.439 29.9416 62.0406 29.9416Z" fill="#262B5B"/>
<path d="M41.0406 29.9416C42.6423 29.9416 43.9406 28.6432 43.9406 27.0416C43.9406 25.44 42.6423 24.1416 41.0406 24.1416C39.439 24.1416 38.1406 25.44 38.1406 27.0416C38.1406 28.6432 39.439 29.9416 41.0406 29.9416Z" fill="#262B5B"/>
<path d="M76.5411 17.2419C79.4411 20.1419 81.7411 23.7419 83.1411 27.8419C83.7411 29.7419 85.7411 30.8419 87.7411 30.4419L89.3411 30.1419C91.8411 29.6419 93.1411 26.8419 92.0411 24.5419C89.5411 19.3419 86.0411 14.9419 81.8411 11.4419C80.9411 10.6419 79.6411 10.3419 78.4411 10.6419C75.4411 11.2419 74.3411 15.0419 76.5411 17.2419Z" fill="white"/>
<path d="M68.6402 13.7419C70.518 13.7419 72.0402 12.2197 72.0402 10.3419C72.0402 8.46413 70.518 6.94189 68.6402 6.94189C66.7625 6.94189 65.2402 8.46413 65.2402 10.3419C65.2402 12.2197 66.7625 13.7419 68.6402 13.7419Z" fill="white"/>
<path d="M14.0392 106.142C13.9392 108.642 14.0392 111.142 14.2392 113.642C14.4392 115.742 16.2392 117.342 18.4392 117.342H97.2392C99.3392 117.342 101.139 115.742 101.439 113.642C101.639 111.942 101.739 110.242 101.739 108.542C101.739 83.642 80.9392 63.542 55.8392 64.742C33.4392 65.742 15.2392 83.842 14.0392 106.142Z" fill="url(#paint1_radial_567_319)"/>
<path d="M44.4395 66.742C45.5395 67.742 52.2395 68.442 60.3395 68.442C65.8395 68.442 70.7395 68.142 73.6395 67.542C68.1395 65.442 62.0395 64.342 55.7395 64.642C51.8395 64.942 48.0395 65.642 44.4395 66.742Z" fill="url(#paint2_radial_567_319)"/>
<path d="M14.3398 113.642C14.5398 115.742 16.3398 117.342 18.5398 117.342H97.3398C99.4398 117.342 101.24 115.742 101.54 113.642C101.74 111.942 101.84 110.242 101.84 108.542C101.84 100.642 99.7398 93.1422 96.0398 86.7422C96.6398 89.1422 99.6398 105.142 81.8398 110.742C62.5398 116.842 14.3398 113.642 14.3398 113.642Z" fill="url(#paint3_linear_567_319)"/>
<path d="M44.4395 66.742C45.5395 67.742 52.2395 68.442 60.3395 68.442C65.8395 68.442 70.7395 68.142 73.6395 67.542C68.1395 65.442 62.0395 64.342 55.7395 64.642C51.8395 64.942 48.0395 65.642 44.4395 66.742Z" fill="url(#paint4_radial_567_319)"/>
<defs>
<radialGradient id="paint0_radial_567_319" cx="0" cy="0" r="1" gradientUnits="userSpaceOnUse" gradientTransform="translate(67.7268 0.891363) rotate(-162.05) scale(79.47 94.5693)">
<stop offset="0.2" stop-color="#CAD8F0"/>
<stop offset="0.34" stop-color="#C6D5EE"/>
<stop offset="0.46" stop-color="#BBCBE8"/>
<stop offset="0.59" stop-color="#A8BADE"/>
<stop offset="0.72" stop-color="#8DA2D1"/>
<stop offset="0.8" stop-color="#758DC4"/>
</radialGradient>
<radialGradient id="paint1_radial_567_319" cx="0" cy="0" r="1" gradientUnits="userSpaceOnUse" gradientTransform="translate(57.9968 63.7312) rotate(-179.12) scale(65.24 63.2828)">
<stop offset="0.46" stop-color="#CAD8F0"/>
<stop offset="0.55" stop-color="#C4D2ED"/>
<stop offset="0.68" stop-color="#B2C3E4"/>
<stop offset="0.82" stop-color="#95AAD5"/>
<stop offset="0.95" stop-color="#758DC4"/>
</radialGradient>
<radialGradient id="paint2_radial_567_319" cx="0" cy="0" r="1" gradientUnits="userSpaceOnUse" gradientTransform="translate(59.4114 51.306) rotate(-179.12) scale(16.46 15.9662)">
<stop offset="0.46" stop-color="#CAD8F0"/>
<stop offset="0.55" stop-color="#C4D2ED"/>
<stop offset="0.68" stop-color="#B2C3E4"/>
<stop offset="0.82" stop-color="#95AAD5"/>
<stop offset="0.95" stop-color="#758DC4"/>
</radialGradient>
<linearGradient id="paint3_linear_567_319" x1="8.89984" y1="106.662" x2="102.21" y2="101.752" gradientUnits="userSpaceOnUse">
<stop stop-color="#758DC4"/>
<stop offset="0.28" stop-color="#7C94CB" stop-opacity="0.72"/>
<stop offset="1" stop-color="#89A1D8" stop-opacity="0"/>
</linearGradient>
<radialGradient id="paint4_radial_567_319" cx="0" cy="0" r="1" gradientUnits="userSpaceOnUse" gradientTransform="translate(28.1995 66.252) rotate(180) scale(62.55 62.5499)">
<stop offset="0.15" stop-color="#CAD8F0"/>
<stop offset="0.95" stop-color="#758DC4"/>
</radialGradient>
</defs>
</svg>
