<svg width="40" height="40" viewBox="0 0 40 40" fill="#9fdcff" xmlns="http://www.w3.org/2000/svg">
<path d="M36.2027 33.36C36.7245 32.6044 37.0312 31.6891 37.0312 30.7031C37.0312 28.1183 34.9286 26.0156 32.3438 26.0156C29.7589 26.0156 27.6562 28.1183 27.6562 30.7031C27.6562 31.6699 27.9507 32.5693 28.4543 33.3163C27.5549 33.8348 26.77 34.5297 26.1459 35.3528C25.5304 34.541 24.758 33.8544 23.8742 33.3383C24.3872 32.587 24.6875 31.6794 24.6875 30.7031C24.6875 28.1183 22.5848 26.0156 20 26.0156C17.4152 26.0156 15.3125 28.1183 15.3125 30.7031C15.3125 31.6794 15.6128 32.587 16.1258 33.3383C15.242 33.8544 14.4696 34.541 13.8541 35.3531C13.2559 34.5636 12.5092 33.8925 11.6559 33.3817C12.1872 32.6218 12.5 31.6986 12.5 30.7031C12.5 28.1183 10.3973 26.0156 7.8125 26.0156C5.22766 26.0156 3.125 28.1183 3.125 30.7031C3.125 31.6608 3.41431 32.5519 3.9093 33.295C1.57684 34.6219 0 37.1301 0 40H3.125C3.125 37.4728 5.18097 35.4166 7.70844 35.4166C10.2356 35.4166 12.2916 37.4728 12.2916 40H15.4166C15.4166 37.4728 17.4728 35.4166 20 35.4166C22.5272 35.4166 24.5834 37.4728 24.5834 40H27.7084C27.7084 37.4728 29.7644 35.4166 32.2916 35.4166C34.819 35.4166 36.875 37.4728 36.875 40H40C40 37.1762 38.4735 34.7028 36.2027 33.36ZM7.8125 29.1406C8.67401 29.1406 9.375 29.8416 9.375 30.7031C9.375 31.5646 8.67401 32.2656 7.8125 32.2656C6.95099 32.2656 6.25 31.5646 6.25 30.7031C6.25 29.8416 6.95099 29.1406 7.8125 29.1406ZM20 29.1406C20.8615 29.1406 21.5625 29.8416 21.5625 30.7031C21.5625 31.5646 20.8615 32.2656 20 32.2656C19.1385 32.2656 18.4375 31.5646 18.4375 30.7031C18.4375 29.8416 19.1385 29.1406 20 29.1406ZM32.3438 29.1406C33.2053 29.1406 33.9062 29.8416 33.9062 30.7031C33.9062 31.5646 33.2053 32.2656 32.3438 32.2656C31.4822 32.2656 30.7812 31.5646 30.7812 30.7031C30.7812 29.8416 31.4822 29.1406 32.3438 29.1406ZM7.89062 9.375C10.4755 9.375 12.5781 7.27234 12.5781 4.6875C12.5781 2.10266 10.4755 0 7.89062 0C5.30579 0 3.20312 2.10266 3.20312 4.6875C3.20312 7.27234 5.30579 9.375 7.89062 9.375ZM7.89062 3.125C8.75214 3.125 9.45312 3.82599 9.45312 4.6875C9.45312 5.54901 8.75214 6.25 7.89062 6.25C7.02911 6.25 6.32812 5.54901 6.32812 4.6875C6.32812 3.82599 7.02911 3.125 7.89062 3.125ZM3.125 22.8906H0V15.5469C0 12.962 2.10266 10.8594 4.6875 10.8594H24.1406V13.9844H12.5V22.8906H9.375V13.9844H4.6875C3.82599 13.9844 3.125 14.6854 3.125 15.5469V22.8906ZM40 19.7656V22.8906H15.625V19.7656H34.5312V4.6875C34.5312 3.82599 33.8303 3.125 32.9688 3.125H15.7031V0H32.9688C35.5536 0 37.6562 2.10266 37.6562 4.6875V19.7656H40Z" fill="#9fdcff"/>
</svg>
